#N canvas 565 238 847 575 10;
#X declare -path rj;
#X declare -path abs;
#X text 27 23 RjDj Scene Template - _main.pd;
#X obj 571 52 declare -path rj;
#X obj 75 326 e_vocoder thisvoco;
#N canvas 1 92 660 424 chord 0;
#X obj 92 187 -~ 0.5;
#X obj 92 236 clip~ -0.5 0.5;
#X obj 92 259 cos~;
#X obj 91 342 hip~ 5;
#X obj 91 405 outlet~;
#X obj 92 212 *~ 3;
#X obj 92 164 phasor~ 220;
#X obj 221 187 -~ 0.5;
#X obj 221 236 clip~ -0.5 0.5;
#X obj 221 259 cos~;
#X obj 221 212 *~ 3;
#X obj 356 190 -~ 0.5;
#X obj 356 239 clip~ -0.5 0.5;
#X obj 356 262 cos~;
#X obj 356 215 *~ 3;
#X obj 221 164 phasor~ 251;
#X obj 356 167 phasor~ 281;
#X obj 91 375 *~ 0.2;
#X msg 430 116 0;
#X obj 465 193 -~ 0.5;
#X obj 465 242 clip~ -0.5 0.5;
#X obj 465 265 cos~;
#X obj 465 218 *~ 3;
#X obj 465 170 phasor~ 281;
#X obj 91 24 route 1 2 3 4;
#X obj 91 -9 inlet;
#X obj 93 294 *~;
#N canvas 1 86 450 300 mtof 0;
#X obj 91 46 unpack;
#X obj 91 76 mtof;
#X obj 183 115 line~;
#X obj 183 137 dbtorms~;
#X obj 164 54 > 0;
#X obj 164 76 sel 0 1;
#X msg 184 96 0 \, 100 50;
#X msg 140 98 0 250;
#X obj 91 16 inlet;
#X obj 87 162 outlet;
#X obj 180 200 outlet~;
#X connect 0 0 1 0;
#X connect 0 1 4 0;
#X connect 1 0 9 0;
#X connect 2 0 3 0;
#X connect 3 0 10 0;
#X connect 4 0 5 0;
#X connect 5 0 7 0;
#X connect 5 1 6 0;
#X connect 6 0 2 0;
#X connect 7 0 2 0;
#X connect 8 0 0 0;
#X restore 89 91 pd mtof;
#N canvas 1 86 450 300 mtof 0;
#X obj 91 46 unpack;
#X obj 91 76 mtof;
#X obj 183 115 line~;
#X obj 183 137 dbtorms~;
#X obj 164 54 > 0;
#X obj 164 76 sel 0 1;
#X msg 184 96 0 \, 100 50;
#X msg 140 98 0 250;
#X obj 91 16 inlet;
#X obj 87 162 outlet;
#X obj 180 200 outlet~;
#X connect 0 0 1 0;
#X connect 0 1 4 0;
#X connect 1 0 9 0;
#X connect 2 0 3 0;
#X connect 3 0 10 0;
#X connect 4 0 5 0;
#X connect 5 0 7 0;
#X connect 5 1 6 0;
#X connect 6 0 2 0;
#X connect 7 0 2 0;
#X connect 8 0 0 0;
#X restore 213 105 pd mtof;
#N canvas 1 86 450 300 mtof 0;
#X obj 91 46 unpack;
#X obj 91 76 mtof;
#X obj 183 115 line~;
#X obj 183 137 dbtorms~;
#X obj 164 54 > 0;
#X obj 164 76 sel 0 1;
#X msg 184 96 0 \, 100 50;
#X msg 140 98 0 250;
#X obj 91 16 inlet;
#X obj 87 162 outlet;
#X obj 180 200 outlet~;
#X connect 0 0 1 0;
#X connect 0 1 4 0;
#X connect 1 0 9 0;
#X connect 2 0 3 0;
#X connect 3 0 10 0;
#X connect 4 0 5 0;
#X connect 5 0 7 0;
#X connect 5 1 6 0;
#X connect 6 0 2 0;
#X connect 7 0 2 0;
#X connect 8 0 0 0;
#X restore 356 127 pd mtof;
#N canvas 1 86 450 300 mtof 0;
#X obj 91 46 unpack;
#X obj 91 76 mtof;
#X obj 183 115 line~;
#X obj 183 137 dbtorms~;
#X obj 164 54 > 0;
#X obj 164 76 sel 0 1;
#X msg 184 96 0 \, 100 50;
#X msg 140 98 0 250;
#X obj 91 16 inlet;
#X obj 87 162 outlet;
#X obj 180 200 outlet~;
#X connect 0 0 1 0;
#X connect 0 1 4 0;
#X connect 1 0 9 0;
#X connect 2 0 3 0;
#X connect 3 0 10 0;
#X connect 4 0 5 0;
#X connect 5 0 7 0;
#X connect 5 1 6 0;
#X connect 6 0 2 0;
#X connect 7 0 2 0;
#X connect 8 0 0 0;
#X restore 474 125 pd mtof;
#X obj 364 287 *~;
#X obj 227 296 *~;
#X obj 469 290 *~;
#X connect 0 0 5 0;
#X connect 1 0 2 0;
#X connect 2 0 26 0;
#X connect 3 0 17 0;
#X connect 5 0 1 0;
#X connect 6 0 0 0;
#X connect 7 0 10 0;
#X connect 8 0 9 0;
#X connect 9 0 32 0;
#X connect 10 0 8 0;
#X connect 11 0 14 0;
#X connect 12 0 13 0;
#X connect 13 0 31 0;
#X connect 14 0 12 0;
#X connect 15 0 7 0;
#X connect 16 0 11 0;
#X connect 17 0 4 0;
#X connect 18 0 16 1;
#X connect 18 0 15 1;
#X connect 18 0 6 1;
#X connect 18 0 23 1;
#X connect 19 0 22 0;
#X connect 20 0 21 0;
#X connect 21 0 33 0;
#X connect 22 0 20 0;
#X connect 23 0 19 0;
#X connect 24 0 27 0;
#X connect 24 1 28 0;
#X connect 24 2 29 0;
#X connect 24 3 30 0;
#X connect 25 0 24 0;
#X connect 26 0 3 0;
#X connect 27 0 6 0;
#X connect 27 1 26 1;
#X connect 28 0 15 0;
#X connect 28 1 32 1;
#X connect 29 0 16 0;
#X connect 29 1 31 1;
#X connect 30 0 23 0;
#X connect 30 1 33 1;
#X connect 31 0 3 0;
#X connect 32 0 3 0;
#X connect 33 0 3 0;
#X restore 75 215 pd chord;
#X text 130 358 A vocoder processes microphone input;
#X text 144 216 Source of chord sound;
#X obj 126 245 adc~;
#X obj 75 491 dac~;
#X obj 75 120 r syn-noteon;
#X obj 75 164 poly 4 1;
#X obj 75 186 pack f f f;
#X msg 70 64 60 \$1;
#X obj 70 45 tgl 15 0 empty empty empty 17 7 0 10 -262144 -1 -1 1 1
;
#X obj 113 45 tgl 15 0 empty empty empty 17 7 0 10 -262144 -1 -1 1
1;
#X msg 113 64 63 \$1;
#X obj 161 45 tgl 15 0 empty empty empty 17 7 0 10 -262144 -1 -1 1
1;
#X msg 161 64 63 \$1;
#X obj 121 426 osc~ 440;
#X obj 121 448 *~ 0.2;
#X obj 269 22 loadbang;
#X msg 269 44 1;
#X obj 589 347 enable-input;
#X obj 571 24 declare -path abs;
#X obj 547 259 loadbang;
#X obj 547 347 f \$0;
#X obj 517 323 bng 15 250 50 0 empty empty empty 17 7 0 10 -262144
-1 -1;
#X obj 547 281 del 1000;
#X obj 547 303 t b b;
#X msg 589 326 1;
#X msg 547 368 \; pd dsp 1;
#X connect 2 0 7 0;
#X connect 3 0 2 0;
#X connect 6 1 2 1;
#X connect 8 0 9 0;
#X connect 9 0 10 0;
#X connect 9 1 10 1;
#X connect 9 2 10 2;
#X connect 10 0 3 0;
#X connect 11 0 9 0;
#X connect 12 0 11 0;
#X connect 13 0 14 0;
#X connect 14 0 9 0;
#X connect 15 0 16 0;
#X connect 16 0 9 0;
#X connect 17 0 18 0;
#X connect 18 0 7 1;
#X connect 19 0 20 0;
#X connect 20 0 15 0;
#X connect 20 0 13 0;
#X connect 20 0 12 0;
#X connect 23 0 26 0;
#X connect 24 0 29 0;
#X connect 25 0 24 0;
#X connect 26 0 27 0;
#X connect 27 0 24 0;
#X connect 27 1 28 0;
#X connect 28 0 21 0;
