#N canvas 604 407 863 610 10;
#X declare -path abs -path ../bin64 -path bin -path abs;
#X obj 215 46 r syn-noteon;
#X obj 215 98 moses 72;
#X obj 215 68 unpack;
#X obj 215 128 pack;
#X text 272 99 <-- on coupe le clavier au DO;
#X obj 281 494 dac~;
#X obj 283 365 line~;
#X msg 283 322 0 \, 16000 1000;
#X obj 282 126 pack;
#N canvas 76 417 450 370 samples 0;
#X obj 119 24 table sample1;
#X obj 86 294 soundfiler;
#X obj 86 118 loadbang;
#X obj 86 192 getdir;
#X obj 108 170 bng 15 250 50 0 empty empty empty 17 7 0 10 -262144
-1 -1;
#X msg 86 219 read -resize \$1/sound/hello_girls.wav sample1;
#X obj 119 44 table sample2;
#X msg 96 240 read -resize \$1/sound/ring_tone.wav sample2;
#X msg 106 260 read -resize \$1/sound/grosseu_pute.wav sample3;
#X obj 119 64 table sample3;
#X obj 28 230 outlet;
#X msg 28 199 1;
#X obj 86 142 t b b b;
#X msg 151 177 0;
#X obj 28 170 del 100;
#X connect 2 0 12 0;
#X connect 3 0 5 0;
#X connect 3 0 7 0;
#X connect 3 0 8 0;
#X connect 4 0 3 0;
#X connect 5 0 1 0;
#X connect 7 0 1 0;
#X connect 8 0 1 0;
#X connect 11 0 10 0;
#X connect 12 0 14 0;
#X connect 12 1 3 0;
#X connect 12 2 13 0;
#X connect 13 0 10 0;
#X connect 14 0 11 0;
#X restore 43 41 pd samples;
#X obj 282 433 tabread4~ sample1;
#X obj 452 534 dac~;
#X obj 454 402 line~;
#X msg 407 354 0 \, 16000 1000;
#X obj 453 474 tabread4~ sample3;
#X msg 652 288 0 \, 16000 1250;
#X obj 111 263 mtof;
#X obj 110 494 dac~;
#X obj 111 411 line~;
#X obj 111 433 tabread4~ sample2;
#X obj 111 337 * 4000;
#X msg 111 287 349.228 \$1;
#X obj 111 307 /;
#X msg 111 371 0 \, 176400 \$1;
#X obj 111 187 unpack;
#X obj 144 211 > 0;
#X obj 111 239 spigot;
#X obj 189 264 sel 0;
#X msg 189 286 0;
#X obj 324 164 route 72 74 76 71;
#X obj 256 277 sel 0;
#X msg 256 343 0;
#X obj 283 302 t b;
#X obj 380 281 sel 0;
#X msg 469 331 0;
#X obj 407 306 t b;
#X obj 624 240 sel 0;
#X obj 652 264 t b;
#X obj 493 246 sel 0;
#X obj 521 270 t b;
#X msg 521 294 0 \, 16000 750;
#X obj 43 139 switch~;
#X obj 43 121 tgl 15 0 empty empty empty 17 7 0 10 -262144 -1 -1 1
1;
#X obj 64 88 r dsp;
#X obj 44 14 declare -path abs -path ../bin64 -path bin -path abs;
#X obj 564 107 enable-input;
#X obj 564 88 tgl 15 1 empty empty empty 17 7 0 10 -262144 -1 -1 0
1;
#X connect 0 0 2 0;
#X connect 1 0 3 0;
#X connect 1 1 8 0;
#X connect 2 0 1 0;
#X connect 2 1 3 1;
#X connect 2 1 8 1;
#X connect 3 0 24 0;
#X connect 6 0 10 0;
#X connect 7 0 6 0;
#X connect 8 0 29 0;
#X connect 9 0 42 0;
#X connect 10 0 5 0;
#X connect 10 0 5 1;
#X connect 12 0 14 0;
#X connect 13 0 12 0;
#X connect 14 0 11 0;
#X connect 14 0 11 1;
#X connect 15 0 12 0;
#X connect 16 0 21 0;
#X connect 18 0 19 0;
#X connect 19 0 17 0;
#X connect 19 0 17 1;
#X connect 20 0 23 0;
#X connect 21 0 22 0;
#X connect 22 0 20 0;
#X connect 23 0 18 0;
#X connect 24 0 26 0;
#X connect 24 1 25 0;
#X connect 25 0 26 1;
#X connect 25 0 27 0;
#X connect 26 0 16 0;
#X connect 27 0 28 0;
#X connect 28 0 18 0;
#X connect 29 0 30 0;
#X connect 29 1 33 0;
#X connect 29 2 38 0;
#X connect 29 3 36 0;
#X connect 30 0 31 0;
#X connect 30 1 32 0;
#X connect 31 0 6 0;
#X connect 32 0 7 0;
#X connect 33 0 34 0;
#X connect 33 1 35 0;
#X connect 34 0 12 0;
#X connect 35 0 13 0;
#X connect 36 0 34 0;
#X connect 36 1 37 0;
#X connect 37 0 15 0;
#X connect 38 0 34 0;
#X connect 38 1 39 0;
#X connect 39 0 40 0;
#X connect 40 0 12 0;
#X connect 42 0 41 0;
#X connect 43 0 42 0;
#X connect 46 0 45 0;
