#N canvas 673 423 863 539 10;
#X declare -path abs -path ../bin64 -path bin;
#X obj 44 14 declare -path abs -path ../bin64 -path bin;
#X obj 215 46 r syn-noteon;
#X obj 215 98 moses 72;
#X obj 215 68 unpack;
#X obj 215 150 pack;
#X text 272 99 <-- on coupe le clavier au DO;
#X obj 281 434 dac~;
#X obj 283 302 line~;
#X msg 283 262 0 \, 16000 1000;
#X obj 283 145 stripnote;
#X obj 282 126 pack;
#X floatatom 188 199 5 0 0 0 - - -;
#N canvas 1 92 450 370 samples 0;
#X obj 119 24 table sample1;
#X obj 86 294 soundfiler;
#X obj 86 170 loadbang;
#X obj 86 192 getdir;
#X obj 54 156 bng 15 250 50 0 empty empty empty 17 7 0 10 -262144 -1
-1;
#X msg 86 219 read -resize \$1/sound/hello_girls.wav sample1;
#X obj 119 44 table sample2;
#X msg 96 240 read -resize \$1/sound/ring_tone.wav sample2;
#X msg 106 260 read -resize \$1/sound/grosseu_pute.wav sample3;
#X obj 119 64 table sample3;
#X connect 2 0 3 0;
#X connect 3 0 5 0;
#X connect 3 0 7 0;
#X connect 3 0 8 0;
#X connect 4 0 3 0;
#X connect 5 0 1 0;
#X connect 7 0 1 0;
#X connect 8 0 1 0;
#X restore 43 41 pd samples;
#X obj 282 373 tabread4~ sample1;
#X obj 437 432 dac~;
#X obj 439 300 line~;
#X msg 439 260 0 \, 16000 1000;
#X obj 438 372 tabread4~ sample3;
#X msg 538 260 0 \, 16000 750;
#X obj 283 183 sel 72 74 76 71;
#X msg 491 215 0 \, 16000 1250;
#X obj 112 214 mtof;
#X obj 110 494 dac~;
#X obj 112 362 line~;
#X obj 111 433 tabread4~ sample2;
#X obj 112 288 * 4000;
#X msg 112 238 349.228 \$1;
#X obj 112 258 /;
#X msg 112 322 0 \, 176400 \$1;
#X connect 1 0 3 0;
#X connect 2 0 4 0;
#X connect 2 1 10 0;
#X connect 3 0 2 0;
#X connect 3 1 4 1;
#X connect 3 1 10 1;
#X connect 4 0 11 0;
#X connect 4 0 21 0;
#X connect 7 0 13 0;
#X connect 8 0 7 0;
#X connect 9 0 19 0;
#X connect 10 0 9 0;
#X connect 13 0 6 0;
#X connect 13 0 6 1;
#X connect 15 0 17 0;
#X connect 16 0 15 0;
#X connect 17 0 14 0;
#X connect 17 0 14 1;
#X connect 18 0 15 0;
#X connect 19 0 8 0;
#X connect 19 1 16 0;
#X connect 19 2 18 0;
#X connect 19 3 20 0;
#X connect 20 0 15 0;
#X connect 21 0 26 0;
#X connect 23 0 24 0;
#X connect 24 0 22 0;
#X connect 24 0 22 1;
#X connect 25 0 28 0;
#X connect 26 0 27 0;
#X connect 27 0 25 0;
#X connect 28 0 23 0;
