#N canvas 575 212 847 575 10;
#X declare -path abs -path rj;
#X obj 76 326 e_vocoder thisvoco;
#X text 131 358 A vocoder processes microphone input;
#X obj 106 267 adc~;
#X obj 75 381 dac~;
#X obj 75 180 enable-input;
#X obj 75 162 tgl 15 1 empty empty empty 17 7 0 10 -262144 -1 -1 1
1;
#X obj 73 131 declare -path abs -path rj;
#X connect 0 0 3 0;
#X connect 0 0 3 1;
#X connect 2 0 0 0;
#X connect 2 1 0 1;
#X connect 5 0 4 0;
