#N canvas 538 253 1316 649 10;
#X declare -path rj -path abs;
#X obj 1118 126 c_keyboard;
#X obj 1177 9 enable-input;
#X obj 1177 -10 tgl 15 1 empty empty empty 17 7 0 10 -262144 -1 -1
0 1;
#X obj 1069 -60 declare -path rj -path abs;
#X obj 1064 55 tgl 15 0 empty empty compute_audio 17 7 0 10 -262144
-1 -1 1 1;
#X obj 1064 79 switch~;
#X obj 1064 32 r dsp;
#X obj 1066 -36 OVERVIEW;
#X text 1120 -35 aperçu de tous les objets rj disponibles;
#X obj 346 13 tgl 15 0 empty empty empty 17 7 0 10 -262144 -1 -1 0
1;
#X text 519 298 hihat tuning;
#X text 652 6 Most can optionally be extended with the decay time \,
"cp" with midi like velocity.;
#X text 751 -27 cp: clap;
#X obj 1109 268 realtime;
#X obj 1109 244 t b b;
#N canvas 497 460 536 371 mean 0;
#X obj 130 45 inlet;
#X obj 130 225 outlet;
#X obj 130 124 list;
#X obj 130 146 list split 3;
#X obj 130 168 mean;
#X obj 229 43 inlet;
#X connect 0 0 2 0;
#X connect 2 0 3 0;
#X connect 3 0 2 1;
#X connect 3 0 4 0;
#X connect 3 2 2 1;
#X connect 4 0 1 0;
#X connect 5 0 4 1;
#X restore 1109 400 pd mean;
#N canvas 1 104 1069 730 bd 0;
#X obj 101 100 g_pattern32 bd 1500;
#X msg 140 242 bd \$1;
#X obj 101 216 moses 1;
#N canvas 234 116 594 365 restore 0;
#X obj 59 129 list prepend set;
#X obj 59 150 list trim;
#X obj 59 102 inlet;
#X obj 59 268 outlet;
#X obj 81 178 loadbang;
#X text 234 106 stores the last pattern.;
#X msg 59 216 1362 -78 -150 -186 -222 -258 -258 -258 966 -258 -294
-366 -366 -402 -402 -438 1254 -438 -510 -546 -546 -618 -618 -654 1074
-654 -726 -690 -654 -618 -546 570;
#X connect 0 0 1 0;
#X connect 1 0 6 0;
#X connect 2 0 0 0;
#X connect 4 0 6 0;
#X connect 6 0 3 0;
#X restore 472 139 pd restore;
#X obj 140 267 s drums;
#X obj 101 22 r metro;
#X obj 121 46 sel 0;
#X msg 121 68 dump;
#X connect 0 0 2 0;
#X connect 0 1 3 0;
#X connect 1 0 4 0;
#X connect 2 1 1 0;
#X connect 3 0 0 1;
#X connect 5 0 0 0;
#X connect 5 0 6 0;
#X connect 6 0 7 0;
#X connect 7 0 0 0;
#X coords 0 -1 1 1 352 102 2 100 99;
#X restore 65 111 pd bd;
#X obj 346 70 s metro;
#X obj 346 38 c_multimetro 32 120;
#X obj 509 490 s_drumelectro;
#X obj 509 559 soundoutput;
#X obj 509 359 g_hsl hhtune 0 2;
#X obj 510 524 *~ 0.5;
#X obj 521 455 r drums;
#X obj 1101 -11 loadbang;
#X obj 1101 11 del 100;
#X msg 1101 33 1;
#N canvas 173 402 1069 730 bd 0;
#X obj 101 216 moses 1;
#N canvas 234 116 594 365 restore 0;
#X obj 59 129 list prepend set;
#X obj 59 150 list trim;
#X obj 59 102 inlet;
#X obj 59 268 outlet;
#X obj 81 178 loadbang;
#X text 234 106 stores the last pattern.;
#X msg 59 216 0 0 0 46 214 0 0 0 -14 0 0 0 202 58 274 0 0 0 0 0 238
0 0 0 0 0 0 -38 226 0 -2 0;
#X connect 0 0 1 0;
#X connect 1 0 6 0;
#X connect 2 0 0 0;
#X connect 4 0 6 0;
#X connect 6 0 3 0;
#X restore 472 139 pd restore;
#X obj 140 267 s drums;
#X obj 101 22 r metro;
#X obj 121 46 sel 0;
#X msg 121 68 dump;
#X msg 140 242 sn \$1;
#X obj 101 100 g_pattern32 sn 500;
#X connect 0 1 6 0;
#X connect 1 0 7 1;
#X connect 3 0 4 0;
#X connect 3 0 7 0;
#X connect 4 0 5 0;
#X connect 5 0 7 0;
#X connect 6 0 2 0;
#X connect 7 0 0 0;
#X connect 7 1 1 0;
#X coords 0 -1 1 1 352 102 2 100 99;
#X restore 65 221 pd bd;
#N canvas 167 349 1069 730 bd 0;
#X obj 101 216 moses 1;
#N canvas 234 116 594 365 restore 0;
#X obj 59 129 list prepend set;
#X obj 59 150 list trim;
#X obj 59 102 inlet;
#X obj 59 268 outlet;
#X obj 81 178 loadbang;
#X text 234 106 stores the last pattern.;
#X msg 59 216 7 18 18 113 66 111 51 25 66 97 106 75 12 65 89 23 91
83 118 23 14 66 54 66 114 29 31 32 54 81 111 7;
#X connect 0 0 1 0;
#X connect 1 0 6 0;
#X connect 2 0 0 0;
#X connect 4 0 6 0;
#X connect 6 0 3 0;
#X restore 472 139 pd restore;
#X obj 137 407 s drums;
#X obj 101 22 r metro;
#X obj 121 46 sel 0;
#X obj 101 100 g_pattern32 oh 125;
#X msg 470 37 bang;
#X obj 470 59 u_listrandom 125 32;
#X obj 198 306 + 40;
#X obj 102 256 bng 15 250 50 0 empty empty empty 17 7 0 10 -262144
-1 -1;
#X obj 102 325 sel 0 1;
#X obj 102 283 random 100;
#X obj 102 305 > 50;
#X obj 139 258 t b a;
#X msg 102 349 hh;
#X msg 132 348 oh;
#X obj 138 380 pack s f;
#X obj 610 57 inlet;
#X connect 0 1 13 0;
#X connect 1 0 5 1;
#X connect 3 0 4 0;
#X connect 3 0 5 0;
#X connect 4 0 6 0;
#X connect 5 0 0 0;
#X connect 5 1 1 0;
#X connect 6 0 7 0;
#X connect 7 0 5 1;
#X connect 8 0 16 1;
#X connect 9 0 11 0;
#X connect 10 0 14 0;
#X connect 10 1 15 0;
#X connect 11 0 12 0;
#X connect 12 0 10 0;
#X connect 13 0 11 0;
#X connect 13 1 8 0;
#X connect 14 0 16 0;
#X connect 15 0 16 0;
#X connect 16 0 2 0;
#X connect 17 0 5 1;
#X coords 0 -1 1 1 352 102 2 100 99;
#X restore 65 331 pd bd;
#N canvas 266 189 591 481 swing-it 0;
#X obj 219 292 + 1;
#X obj 186 292 * 1;
#X obj 303 312 * 1;
#X obj 323 266 swap 1;
#X obj 323 290 -;
#X obj 263 173 t b a b a;
#X obj 186 355 pack 0 0;
#X obj 186 200 t a a;
#X obj 263 153 / 100;
#X floatatom 263 133 5 0 0 1 swing-percentage - -, f 5;
#N canvas 1 86 450 300 show 0;
#X obj 41 39 inlet;
#X obj 186 36 inlet;
#X obj 41 124 outlet;
#X msg 186 76 set;
#X obj 41 59 list prepend set;
#X obj 41 83 list trim;
#X connect 0 0 4 0;
#X connect 1 0 3 0;
#X connect 3 0 2 0;
#X connect 4 0 5 0;
#X connect 5 0 2 0;
#X restore 205 386 pd show;
#X msg 205 406 189.072 134.128;
#X obj 186 152 m_bpm2ms;
#X floatatom 186 132 5 0 0 0 bpm - -, f 5;
#X obj 186 174 / 4;
#X obj 186 444 outlet;
#X text 86 27 This example shows how you can delay each second beat
by a fraction of the beat duration \, while still keeping the overall
tempo the same.;
#X text 85 79 Great for house music.;
#X obj 186 110 inlet;
#X obj 263 110 inlet;
#X connect 0 0 1 1;
#X connect 1 0 6 0;
#X connect 2 0 6 1;
#X connect 3 0 4 0;
#X connect 3 1 4 1;
#X connect 4 0 2 1;
#X connect 5 0 1 0;
#X connect 5 1 0 0;
#X connect 5 2 2 0;
#X connect 5 3 3 0;
#X connect 6 0 10 0;
#X connect 6 0 15 0;
#X connect 7 0 1 0;
#X connect 7 1 2 0;
#X connect 8 0 5 0;
#X connect 9 0 8 0;
#X connect 10 0 11 0;
#X connect 12 0 14 0;
#X connect 13 0 12 0;
#X connect 14 0 7 0;
#X connect 18 0 13 0;
#X connect 19 0 9 0;
#X restore 457 18 pd swing-it;
#N canvas 1 86 450 300 restore 0;
#X obj 129 56 inlet;
#X obj 129 185 outlet;
#X msg 129 78 set \$1;
#X msg 129 100 0.220472;
#X obj 197 74 loadbang;
#X connect 0 0 2 0;
#X connect 2 0 3 0;
#X connect 3 0 1 0;
#X connect 4 0 3 0;
#X restore 442 362 pd restore;
#N canvas 169 349 1069 730 bd 0;
#X obj 101 216 moses 1;
#N canvas 234 116 594 365 restore 0;
#X obj 59 129 list prepend set;
#X obj 59 150 list trim;
#X obj 59 102 inlet;
#X obj 59 268 outlet;
#X obj 81 178 loadbang;
#X text 234 106 stores the last pattern.;
#X msg 59 216 0 0 0 0 0 0 0 0 0 0 0 0 0 0 0 0 0 0 0 0 0 0 0 0 89.5
0 0 83.5 0 0 83.5 0;
#X connect 0 0 1 0;
#X connect 1 0 6 0;
#X connect 2 0 0 0;
#X connect 4 0 6 0;
#X connect 6 0 3 0;
#X restore 472 139 pd restore;
#X obj 140 297 s drums;
#X obj 101 22 r metro;
#X msg 470 37 bang;
#X obj 470 59 u_listrandom 125 32;
#X obj 140 243 + 40;
#X msg 140 272 cp \$1;
#X obj 101 100 g_pattern32 cp 125;
#X obj 121 46 sel 0;
#X msg 121 70 dump;
#X connect 0 1 6 0;
#X connect 1 0 8 1;
#X connect 3 0 8 0;
#X connect 3 0 9 0;
#X connect 4 0 5 0;
#X connect 5 0 8 1;
#X connect 6 0 7 0;
#X connect 7 0 2 0;
#X connect 8 0 0 0;
#X connect 8 1 1 0;
#X connect 9 0 10 0;
#X connect 10 0 8 0;
#X coords 0 -1 1 1 352 102 2 100 99;
#X restore 65 441 pd bd;
#X obj 457 -14 nbx 5 14 0 240 0 1 empty bpm bpm 0 -8 0 10 -262144 -1
-1 92.822 256;
#X obj 520 -14 nbx 5 14 0 100 0 0 empty empty swing_percent 0 -8 0
10 -262144 -1 -1 17 256;
#X msg 373 12 set 0;
#X obj 346 -11 t b b;
#X obj 1149 169 > 0;
#X obj 1149 190 sel 1;
#X obj 1149 211 s ON;
#X obj 344 -32 r ON;
#X floatatom 1117 424 5 0 0 0 - - -, f 5;
#X obj 1148 376 bng 15 250 50 0 empty empty empty 17 7 0 10 -262144
-1 -1;
#X obj 1109 169 > 0;
#X obj 1109 190 sel 1;
#X obj 1118 148 route 74 72;
#X obj 1109 351 spigot, f 8;
#X obj 1109 290 t b f;
#X msg 1109 314 1;
#X obj 1109 442 * 4;
#X obj 1109 464 delay;
#X msg 1197 294 0;
#X obj 1197 272 t b;
#X obj 1047 465 /;
#X msg 1047 444 60000 \$1;
#X obj 1047 486 s bpm;
#X obj 745 115 c_keyboard;
#X msg 747 211 bd;
#X msg 778 208 sn;
#X msg 810 206 cp;
#X obj 786 273 s drums;
#X obj 746 160 > 0;
#X obj 746 181 sel 1;
#X obj 785 161 > 0;
#X obj 785 182 sel 1;
#X obj 824 158 > 0;
#X obj 824 179 sel 1;
#X obj 745 137 route 60 62 64 67 69, f 36;
#X obj 864 160 > 0;
#X obj 864 181 sel 1;
#X obj 907 161 > 0;
#X obj 907 182 sel 1;
#X msg 850 208 oh;
#X msg 893 209 hh;
#X connect 0 0 44 0;
#X connect 2 0 1 0;
#X connect 4 0 5 0;
#X connect 6 0 4 0;
#X connect 9 0 18 0;
#X connect 13 0 46 0;
#X connect 14 0 13 0;
#X connect 14 1 13 1;
#X connect 15 0 40 0;
#X connect 15 0 48 0;
#X connect 15 0 53 0;
#X connect 18 0 17 0;
#X connect 19 0 22 0;
#X connect 21 0 19 0;
#X connect 21 0 30 0;
#X connect 22 0 20 0;
#X connect 22 0 20 1;
#X connect 23 0 19 0;
#X connect 24 0 25 0;
#X connect 25 0 26 0;
#X connect 26 0 4 0;
#X connect 29 0 18 2;
#X connect 30 0 21 0;
#X connect 32 0 29 0;
#X connect 33 0 29 1;
#X connect 34 0 18 0;
#X connect 35 0 9 0;
#X connect 35 1 34 0;
#X connect 36 0 37 0;
#X connect 37 0 38 0;
#X connect 39 0 35 0;
#X connect 42 0 43 0;
#X connect 43 0 14 0;
#X connect 44 0 42 0;
#X connect 44 1 36 0;
#X connect 45 0 15 0;
#X connect 46 0 47 0;
#X connect 46 1 45 0;
#X connect 47 0 45 1;
#X connect 48 0 49 0;
#X connect 49 0 51 0;
#X connect 50 0 45 1;
#X connect 51 0 50 0;
#X connect 51 0 41 0;
#X connect 52 0 54 0;
#X connect 53 0 52 0;
#X connect 55 0 66 0;
#X connect 56 0 59 0;
#X connect 57 0 59 0;
#X connect 58 0 59 0;
#X connect 60 0 61 0;
#X connect 61 0 56 0;
#X connect 62 0 63 0;
#X connect 63 0 57 0;
#X connect 64 0 65 0;
#X connect 65 0 58 0;
#X connect 66 0 60 0;
#X connect 66 1 62 0;
#X connect 66 2 64 0;
#X connect 66 3 67 0;
#X connect 66 4 69 0;
#X connect 67 0 68 0;
#X connect 68 0 71 0;
#X connect 69 0 70 0;
#X connect 70 0 72 0;
#X connect 71 0 59 0;
#X connect 72 0 59 0;
