#N canvas 370 200 1316 649 10;
#X declare -path rj -path abs;
#X obj 1118 126 c_keyboard;
#X obj 1177 9 enable-input;
#X obj 1177 -10 tgl 15 1 empty empty empty 17 7 0 10 -262144 -1 -1
0 1;
#X obj 1069 -60 declare -path rj -path abs;
#X obj 1064 55 tgl 15 0 empty empty compute_audio 17 7 0 10 -262144
-1 -1 1 1;
#X obj 1064 79 switch~;
#X obj 1064 32 r dsp;
#X obj 1066 -36 OVERVIEW;
#X text 1120 -35 aperçu de tous les objets rj disponibles;
#X obj 346 13 tgl 15 0 empty empty empty 17 7 0 10 -262144 -1 -1 0
1;
#X text 751 212 hihat tuning;
#X obj 1109 268 realtime;
#X obj 1109 244 t b b;
#N canvas 497 460 536 371 mean 0;
#X obj 130 45 inlet;
#X obj 130 225 outlet;
#X obj 130 124 list;
#X obj 130 146 list split 3;
#X obj 130 168 mean;
#X obj 229 43 inlet;
#X connect 0 0 2 0;
#X connect 2 0 3 0;
#X connect 3 0 2 1;
#X connect 3 0 4 0;
#X connect 3 2 2 1;
#X connect 4 0 1 0;
#X connect 5 0 4 1;
#X restore 1109 400 pd mean;
#N canvas 1 140 1069 730 bd 0;
#X obj 101 100 g_pattern32 bd 1500;
#X msg 140 242 bd \$1;
#X obj 101 216 moses 1;
#N canvas 230 128 594 365 restore 0;
#X obj 59 129 list prepend set;
#X obj 59 150 list trim;
#X obj 59 102 inlet;
#X obj 59 268 outlet;
#X obj 81 178 loadbang;
#X text 234 106 stores the last pattern.;
#X msg 59 216 1326 0 0 0 1218 -42 -42 0 1074 0 0 0 1182 0 0 750 1182
-78 0 0 1074 0 0 0 1110 0 0 0 1074 0 -78 570;
#X connect 0 0 1 0;
#X connect 1 0 6 0;
#X connect 2 0 0 0;
#X connect 4 0 6 0;
#X connect 6 0 3 0;
#X restore 472 139 pd restore;
#X obj 140 267 s drums;
#X obj 101 22 r metro;
#X obj 121 46 sel 0;
#X msg 121 68 dump;
#X obj 498 41 inlet;
#X obj 473 262 outlet;
#X obj 189 23 r dump-pattern;
#X connect 0 0 2 0;
#X connect 0 1 3 0;
#X connect 0 1 9 0;
#X connect 1 0 4 0;
#X connect 2 1 1 0;
#X connect 3 0 0 1;
#X connect 5 0 0 0;
#X connect 5 0 6 0;
#X connect 6 0 7 0;
#X connect 7 0 0 0;
#X connect 8 0 0 1;
#X connect 10 0 7 0;
#X coords 0 -1 1 1 352 102 2 100 99;
#X restore 221 117 pd bd;
#X obj 346 70 s metro;
#X obj 346 38 c_multimetro 32 120;
#X obj 744 363 s_drumelectro;
#X obj 744 432 soundoutput;
#X obj 744 232 g_hsl hhtune 0 2;
#X obj 745 397 *~ 0.5;
#X obj 756 328 r drums;
#X obj 1101 -11 loadbang;
#X obj 1101 11 del 100;
#X msg 1101 33 1;
#N canvas 113 230 658 366 bd 0;
#X obj 101 216 moses 1;
#N canvas 234 116 594 365 restore 0;
#X obj 59 129 list prepend set;
#X obj 59 150 list trim;
#X obj 59 102 inlet;
#X obj 59 268 outlet;
#X obj 81 178 loadbang;
#X text 234 106 stores the last pattern.;
#X msg 59 216 766 -170 -194 -170 -146 -86 -74 -62 -38 -38 -38 -50 -50
-50 -62 -86 -86 -146 -152 -158 -194 -194 -230 -254 -314 -338 -350 -362
-386 -38 -440 -602;
#X connect 0 0 1 0;
#X connect 1 0 6 0;
#X connect 2 0 0 0;
#X connect 4 0 6 0;
#X connect 6 0 3 0;
#X restore 472 139 pd restore;
#X obj 140 267 s drums;
#X obj 101 22 r metro;
#X obj 121 46 sel 0;
#X msg 121 68 dump;
#X msg 140 242 sn \$1;
#X obj 101 100 g_pattern32 sn 500;
#X obj 478 38 inlet;
#X obj 474 260 outlet;
#X obj 189 23 r dump-pattern;
#X connect 0 1 6 0;
#X connect 1 0 7 1;
#X connect 3 0 4 0;
#X connect 3 0 7 0;
#X connect 4 0 5 0;
#X connect 5 0 7 0;
#X connect 6 0 2 0;
#X connect 7 0 0 0;
#X connect 7 1 1 0;
#X connect 7 1 9 0;
#X connect 8 0 7 1;
#X connect 10 0 5 0;
#X coords 0 -1 1 1 352 102 2 100 99;
#X restore 221 228 pd bd;
#N canvas 159 349 1069 730 bd 0;
#X obj 101 216 moses 1;
#N canvas 234 116 594 365 restore 0;
#X obj 59 129 list prepend set;
#X obj 59 150 list trim;
#X obj 59 102 inlet;
#X obj 59 268 outlet;
#X obj 81 178 loadbang;
#X text 234 106 stores the last pattern.;
#X msg 59 216 0 0 0 0 0 0 0 0 0 0 0 0 0 0 0 0 0 0 0 0 0 0 0 0 0 0 0
0 0 0 0 0;
#X connect 0 0 1 0;
#X connect 1 0 6 0;
#X connect 2 0 0 0;
#X connect 4 0 6 0;
#X connect 6 0 3 0;
#X restore 472 139 pd restore;
#X obj 137 407 s drums;
#X obj 101 22 r metro;
#X obj 101 100 g_pattern32 oh 125;
#X obj 198 306 + 40;
#X obj 102 256 bng 15 250 50 0 empty empty empty 17 7 0 10 -262144
-1 -1;
#X obj 102 325 sel 0 1;
#X obj 102 283 random 100;
#X obj 102 305 > 50;
#X obj 139 258 t b a;
#X msg 102 349 hh;
#X msg 132 348 oh;
#X obj 138 380 pack s f;
#X obj 487 46 inlet;
#X obj 458 247 outlet;
#X obj 189 23 r dump-pattern;
#X msg 189 45 dump;
#X connect 0 1 10 0;
#X connect 1 0 4 1;
#X connect 3 0 4 0;
#X connect 4 0 0 0;
#X connect 4 1 1 0;
#X connect 4 1 15 0;
#X connect 5 0 13 1;
#X connect 6 0 8 0;
#X connect 7 0 11 0;
#X connect 7 1 12 0;
#X connect 8 0 9 0;
#X connect 9 0 7 0;
#X connect 10 0 8 0;
#X connect 10 1 5 0;
#X connect 11 0 13 0;
#X connect 12 0 13 0;
#X connect 13 0 2 0;
#X connect 14 0 4 1;
#X connect 16 0 17 0;
#X connect 17 0 4 0;
#X coords 0 -1 1 1 352 102 2 100 99;
#X restore 221 338 pd bd;
#N canvas 266 189 591 481 swing-it 0;
#X obj 219 292 + 1;
#X obj 186 292 * 1;
#X obj 303 312 * 1;
#X obj 323 266 swap 1;
#X obj 323 290 -;
#X obj 263 173 t b a b a;
#X obj 186 355 pack 0 0;
#X obj 186 200 t a a;
#X obj 263 153 / 100;
#X floatatom 263 133 5 0 0 1 swing-percentage - -, f 5;
#N canvas 1 86 450 300 show 0;
#X obj 41 39 inlet;
#X obj 186 36 inlet;
#X obj 41 124 outlet;
#X msg 186 76 set;
#X obj 41 59 list prepend set;
#X obj 41 83 list trim;
#X connect 0 0 4 0;
#X connect 1 0 3 0;
#X connect 3 0 2 0;
#X connect 4 0 5 0;
#X connect 5 0 2 0;
#X restore 205 386 pd show;
#X msg 205 406 164.83 164.83;
#X obj 186 152 m_bpm2ms;
#X floatatom 186 132 5 0 0 0 bpm - -, f 5;
#X obj 186 174 / 4;
#X obj 186 444 outlet;
#X text 86 27 This example shows how you can delay each second beat
by a fraction of the beat duration \, while still keeping the overall
tempo the same.;
#X text 85 79 Great for house music.;
#X obj 186 110 inlet;
#X obj 263 110 inlet;
#X connect 0 0 1 1;
#X connect 1 0 6 0;
#X connect 2 0 6 1;
#X connect 3 0 4 0;
#X connect 3 1 4 1;
#X connect 4 0 2 1;
#X connect 5 0 1 0;
#X connect 5 1 0 0;
#X connect 5 2 2 0;
#X connect 5 3 3 0;
#X connect 6 0 10 0;
#X connect 6 0 15 0;
#X connect 7 0 1 0;
#X connect 7 1 2 0;
#X connect 8 0 5 0;
#X connect 9 0 8 0;
#X connect 10 0 11 0;
#X connect 12 0 14 0;
#X connect 13 0 12 0;
#X connect 14 0 7 0;
#X connect 18 0 13 0;
#X connect 19 0 9 0;
#X restore 457 18 pd swing-it;
#N canvas 1 92 450 300 restore 0;
#X obj 129 56 inlet;
#X obj 129 185 outlet;
#X msg 129 78 set \$1;
#X msg 129 100 0.346457;
#X obj 197 74 loadbang;
#X connect 0 0 2 0;
#X connect 2 0 3 0;
#X connect 3 0 1 0;
#X connect 4 0 3 0;
#X restore 677 235 pd restore;
#N canvas 163 349 1069 730 bd 0;
#X obj 101 216 moses 1;
#N canvas 234 116 594 365 restore 0;
#X obj 59 129 list prepend set;
#X obj 59 150 list trim;
#X obj 59 102 inlet;
#X obj 59 268 outlet;
#X obj 81 178 loadbang;
#X text 234 106 stores the last pattern.;
#X msg 59 216 -37 -55 -61 -55 209 -49 -61 -79 -103 -109 -115 -127 203
-139 -151 -31 -7 -7 -13 -25 191 -19 -25 -31 -37 -25 191 -271 197 -271
-283 203;
#X connect 0 0 1 0;
#X connect 1 0 6 0;
#X connect 2 0 0 0;
#X connect 4 0 6 0;
#X connect 6 0 3 0;
#X restore 472 139 pd restore;
#X obj 140 297 s drums;
#X obj 101 22 r metro;
#X msg 470 37 bang;
#X obj 470 59 u_listrandom 125 32;
#X obj 140 243 + 40;
#X msg 140 272 cp \$1;
#X obj 121 46 sel 0;
#X msg 121 70 dump;
#X obj 439 17 inlet;
#X obj 435 239 outlet;
#X obj 189 23 r dump-pattern;
#X obj 101 100 g_pattern32 cp 250;
#X connect 0 1 6 0;
#X connect 1 0 13 1;
#X connect 3 0 8 0;
#X connect 3 0 13 0;
#X connect 4 0 5 0;
#X connect 5 0 13 1;
#X connect 6 0 7 0;
#X connect 7 0 2 0;
#X connect 8 0 9 0;
#X connect 9 0 13 0;
#X connect 10 0 13 1;
#X connect 12 0 9 0;
#X connect 13 0 0 0;
#X connect 13 1 1 0;
#X connect 13 1 11 0;
#X coords 0 -1 1 1 352 102 2 100 99;
#X restore 221 448 pd bd;
#X obj 457 -14 nbx 5 14 0 240 0 1 empty bpm bpm 0 -8 0 10 -262144 -1
-1 91.003 256;
#X obj 520 -14 nbx 5 14 0 100 0 0 empty empty swing_percent 0 -8 0
10 -262144 -1 -1 0 256;
#X msg 373 12 set 0;
#X obj 346 -11 t b b;
#X obj 1149 169 > 0;
#X obj 1149 190 sel 1;
#X obj 1149 211 s ON;
#X obj 344 -32 r ON;
#X floatatom 1117 424 5 0 0 0 - - -, f 5;
#X obj 1148 376 bng 15 250 50 0 empty empty empty 17 7 0 10 -262144
-1 -1;
#X obj 1109 169 > 0;
#X obj 1109 190 sel 1;
#X obj 1118 148 route 74 72;
#X obj 1109 351 spigot, f 8;
#X obj 1109 290 t b f;
#X msg 1109 314 1;
#X obj 1088 449 * 4;
#X obj 1088 493 delay;
#X msg 1197 294 0;
#X obj 1197 272 t b;
#X obj 1026 472 /;
#X msg 1026 451 60000 \$1;
#X obj 1026 493 s bpm;
#X obj 106 -46 c_keyboard;
#X obj 1088 471 min 10000;
#X obj 106 -24 unpack f f;
#X obj 163 0 > 0;
#X obj 117 43 spigot;
#X obj 117 65 - 60;
#X text 646 7 drum-2 : comme drum-1 mais on choisi des pattern prédéfinis
avec les touches;
#X obj 45 -43 vradio 15 1 0 11 empty empty recall 0 -8 0 10 -4034 -13381
-1 0;
#X obj 25 -43 vradio 15 1 0 11 empty empty save -10 -8 0 10 -258113
-86277 -1 0;
#X text 64 -44 1;
#X text 64 -29 2;
#X text 64 -14 3;
#X text 64 1 4;
#X text 64 16 5;
#X text 64 31 6;
#X text 64 46 7;
#X text 64 61 8;
#X text 64 77 9;
#X text 64 91 10;
#X text 64 107 11;
#N canvas 38 598 450 300 save/recall 0;
#X obj 51 37 inlet;
#X obj 212 39 inlet;
#X obj 212 116 s recall-pattern;
#X obj 77 88 s save-preset-number;
#X obj 52 123 s dump-pattern;
#X obj 51 59 t b a;
#X connect 0 0 5 0;
#X connect 1 0 2 0;
#X connect 5 0 4 0;
#X connect 5 1 3 0;
#X restore 20 135 pd save/recall;
#X obj 117 87 moses 11;
#N canvas 1 122 1905 350 choose 0;
#X obj 39 27 inlet;
#X obj 39 49 list prepend set;
#X obj 39 71 list trim;
#X obj 132 -18 r save-preset-number;
#X obj 39 93 t b a;
#X obj 66 150 spigot;
#X obj 132 4 t a b;
#X msg 137 94 1;
#X msg 39 113 0;
#N canvas 10 234 1905 380 store 0;
#X obj 1209 270 outlet;
#X msg 408 197 0 0 0 0 0 0 0 0 0 0 0 0 0 0 0 0 0 0 0 0 0 0 0 0 0 0
0 0 0 0 0 0;
#X msg 476 144 0 0 0 0 0 0 0 0 0 0 0 0 0 0 0 0 0 0 0 0 0 0 0 0 0 0
0 0 0 0 0 0;
#X msg 796 198 0 0 0 0 0 0 0 0 0 0 0 0 0 0 0 0 0 0 0 0 0 0 0 0 0 0
0 0 0 0 0 0;
#X msg 864 145 766 -170 -194 -170 -146 -86 -74 -62 -38 -38 -38 -50
-50 -50 -62 -86 -86 -146 -152 -158 -194 -194 -230 -254 -314 -338 -350
-362 -386 -38 -440 -602;
#X msg 1183 199 0 0 0 0 0 0 0 0 0 0 0 0 0 0 0 0 0 0 0 0 0 0 0 0 0 0
0 0 0 0 0 0;
#X msg 1251 146 0 0 0 0 0 0 0 0 0 0 0 0 0 0 0 0 0 0 0 0 0 0 0 0 0 0
0 0 0 0 0 0;
#X msg 1574 200 0 0 0 0 0 0 0 0 0 0 0 0 0 0 0 0 0 0 0 0 0 0 0 0 0 0
0 0 0 0 0 0;
#X msg 1642 147 0 0 0 0 0 0 0 0 0 0 0 0 0 0 0 0 0 0 0 0 0 0 0 0 0 0
0 0 0 0 0 0;
#X msg 1959 200 0 0 0 0 0 0 0 0 0 0 0 0 0 0 0 0 0 0 0 0 0 0 0 0 0 0
0 0 0 0 0 0;
#X msg 2027 147 0 0 0 0 0 0 0 0 0 0 0 0 0 0 0 0 0 0 0 0 0 0 0 0 0 0
0 0 0 0 0 0;
#X msg 2352 204 0 0 0 0 0 0 0 0 0 0 0 0 0 0 0 0 0 0 0 0 0 0 0 0 0 0
0 0 0 0 0 0;
#X obj 523 55 route 0 1 2 3 4 5 6 7 8 9 10, f 226;
#X obj 393 0 inlet;
#X connect 1 0 0 0;
#X connect 2 0 0 0;
#X connect 3 0 0 0;
#X connect 4 0 0 0;
#X connect 5 0 0 0;
#X connect 6 0 0 0;
#X connect 7 0 0 0;
#X connect 8 0 0 0;
#X connect 9 0 0 0;
#X connect 10 0 0 0;
#X connect 11 0 0 0;
#X connect 12 0 1 0;
#X connect 12 1 2 0;
#X connect 12 2 3 0;
#X connect 12 3 4 0;
#X connect 12 4 5 0;
#X connect 12 5 6 0;
#X connect 12 6 7 0;
#X connect 12 7 8 0;
#X connect 12 8 9 0;
#X connect 12 9 10 0;
#X connect 12 10 11 0;
#X connect 13 0 12 0;
#X restore 288 174 pd store;
#X msg 288 9 \$1 bang;
#X obj 288 -13 r recall-pattern;
#X obj 288 225 outlet;
#X msg 132 23 \$1 set;
#X connect 0 0 1 0;
#X connect 1 0 2 0;
#X connect 2 0 4 0;
#X connect 3 0 6 0;
#X connect 4 0 8 0;
#X connect 4 1 5 0;
#X connect 5 0 9 0;
#X connect 6 0 13 0;
#X connect 6 1 7 0;
#X connect 7 0 5 1;
#X connect 8 0 5 1;
#X connect 9 0 12 0;
#X connect 10 0 9 0;
#X connect 11 0 10 0;
#X connect 13 0 1 1;
#X restore 105 266 pd choose pattern;
#N canvas 1 122 1905 350 choose 0;
#X obj 39 27 inlet;
#X obj 39 49 list prepend set;
#X obj 39 71 list trim;
#X obj 132 -18 r save-preset-number;
#X obj 39 93 t b a;
#X obj 66 150 spigot;
#X obj 132 4 t a b;
#X msg 137 94 1;
#X msg 39 113 0;
#N canvas 10 234 1905 380 store 0;
#X obj 1209 270 outlet;
#X msg 408 197 1326 0 0 0 1218 -42 -42 0 1074 0 0 0 1182 0 0 750 1182
-78 0 0 1074 0 0 0 1110 0 0 0 1074 0 -78 570;
#X msg 476 144 1326 0 0 0 1218 -42 -42 0 1074 0 0 0 1182 0 0 750 1182
-78 0 0 1074 0 0 0 1110 0 0 0 1074 0 -78 570;
#X msg 796 198 1326 0 0 0 1218 -42 -42 0 1074 0 0 0 1182 0 0 750 1182
-78 0 0 1074 0 0 0 1110 0 0 0 1074 0 -78 570;
#X msg 864 145 1326 0 0 0 1218 -42 -42 0 1074 0 0 0 1182 0 0 750 1182
-78 0 0 1074 0 0 0 1110 0 0 0 1074 0 -78 570;
#X msg 1183 199 0 0 0 0 0 0 0 0 0 0 0 0 0 0 0 0 0 0 0 0 0 0 0 0 0 0
0 0 0 0 0 0;
#X msg 1251 146 0 0 0 0 0 0 0 0 0 0 0 0 0 0 0 0 0 0 0 0 0 0 0 0 0 0
0 0 0 0 0 0;
#X msg 1574 200 0 0 0 0 0 0 0 0 0 0 0 0 0 0 0 0 0 0 0 0 0 0 0 0 0 0
0 0 0 0 0 0;
#X msg 1642 147 0 0 0 0 0 0 0 0 0 0 0 0 0 0 0 0 0 0 0 0 0 0 0 0 0 0
0 0 0 0 0 0;
#X msg 1959 200 0 0 0 0 0 0 0 0 0 0 0 0 0 0 0 0 0 0 0 0 0 0 0 0 0 0
0 0 0 0 0 0;
#X msg 2027 147 0 0 0 0 0 0 0 0 0 0 0 0 0 0 0 0 0 0 0 0 0 0 0 0 0 0
0 0 0 0 0 0;
#X msg 2352 204 0 0 0 0 0 0 0 0 0 0 0 0 0 0 0 0 0 0 0 0 0 0 0 0 0 0
0 0 0 0 0 0;
#X obj 523 55 route 0 1 2 3 4 5 6 7 8 9 10, f 226;
#X obj 393 0 inlet;
#X connect 1 0 0 0;
#X connect 2 0 0 0;
#X connect 3 0 0 0;
#X connect 4 0 0 0;
#X connect 5 0 0 0;
#X connect 6 0 0 0;
#X connect 7 0 0 0;
#X connect 8 0 0 0;
#X connect 9 0 0 0;
#X connect 10 0 0 0;
#X connect 11 0 0 0;
#X connect 12 0 1 0;
#X connect 12 1 2 0;
#X connect 12 2 3 0;
#X connect 12 3 4 0;
#X connect 12 4 5 0;
#X connect 12 5 6 0;
#X connect 12 6 7 0;
#X connect 12 7 8 0;
#X connect 12 8 9 0;
#X connect 12 9 10 0;
#X connect 12 10 11 0;
#X connect 13 0 12 0;
#X restore 288 174 pd store;
#X msg 288 9 \$1 bang;
#X obj 288 -13 r recall-pattern;
#X obj 288 225 outlet;
#X msg 132 23 \$1 set;
#X connect 0 0 1 0;
#X connect 1 0 2 0;
#X connect 2 0 4 0;
#X connect 3 0 6 0;
#X connect 4 0 8 0;
#X connect 4 1 5 0;
#X connect 5 0 9 0;
#X connect 6 0 13 0;
#X connect 6 1 7 0;
#X connect 7 0 5 1;
#X connect 8 0 5 1;
#X connect 9 0 12 0;
#X connect 10 0 9 0;
#X connect 11 0 10 0;
#X connect 13 0 1 1;
#X restore 106 169 pd choose pattern;
#N canvas 1 122 1905 350 choose 0;
#X obj 39 27 inlet;
#X obj 39 49 list prepend set;
#X obj 39 71 list trim;
#X obj 132 -18 r save-preset-number;
#X obj 39 93 t b a;
#X obj 66 150 spigot;
#X obj 132 4 t a b;
#X msg 137 94 1;
#X msg 39 113 0;
#N canvas 10 234 1905 380 store 0;
#X obj 1209 270 outlet;
#X msg 408 197 0 0 0 0 0 0 0 0 0 0 0 0 0 0 0 0 0 0 0 0 0 0 0 0 0 0
0 0 0 0 0 0;
#X msg 476 144 0 0 0 0 0 0 0 0 0 0 0 0 0 0 0 0 0 0 0 0 0 0 0 0 0 0
0 0 0 0 0 0;
#X msg 796 198 17.5 38.5 38.5 41.5 44.5 47.5 47.5 44.5 44.5 44.5 47.5
47.5 47.5 44.5 44.5 41.5 41.5 44.5 44.5 44.5 47.5 50.5 53.5 53.5 35.5
26.5 32.5 38.5 26.5 20.5 26.5 35.5;
#X msg 864 145 17.5 38.5 38.5 41.5 44.5 47.5 47.5 44.5 44.5 44.5 47.5
47.5 47.5 44.5 44.5 41.5 41.5 44.5 44.5 44.5 47.5 50.5 53.5 53.5 35.5
26.5 32.5 38.5 26.5 20.5 26.5 35.5;
#X msg 1183 199 0 0 0 0 0 0 0 0 0 0 0 0 0 0 0 0 0 0 0 0 0 0 0 0 0 0
0 0 0 0 0 0;
#X msg 1251 146 0 0 0 0 0 0 0 0 0 0 0 0 0 0 0 0 0 0 0 0 0 0 0 0 0 0
0 0 0 0 0 0;
#X msg 1574 200 0 0 0 0 0 0 0 0 0 0 0 0 0 0 0 0 0 0 0 0 0 0 0 0 0 0
0 0 0 0 0 0;
#X msg 1642 147 0 0 0 0 0 0 0 0 0 0 0 0 0 0 0 0 0 0 0 0 0 0 0 0 0 0
0 0 0 0 0 0;
#X msg 1959 200 0 0 0 0 0 0 0 0 0 0 0 0 0 0 0 0 0 0 0 0 0 0 0 0 0 0
0 0 0 0 0 0;
#X msg 2027 147 0 0 0 0 0 0 0 0 0 0 0 0 0 0 0 0 0 0 0 0 0 0 0 0 0 0
0 0 0 0 0 0;
#X msg 2352 204 0 0 0 0 0 0 0 0 0 0 0 0 0 0 0 0 0 0 0 0 0 0 0 0 0 0
0 0 0 0 0 0;
#X obj 523 55 route 0 1 2 3 4 5 6 7 8 9 10, f 226;
#X obj 393 0 inlet;
#X connect 1 0 0 0;
#X connect 2 0 0 0;
#X connect 3 0 0 0;
#X connect 4 0 0 0;
#X connect 5 0 0 0;
#X connect 6 0 0 0;
#X connect 7 0 0 0;
#X connect 8 0 0 0;
#X connect 9 0 0 0;
#X connect 10 0 0 0;
#X connect 11 0 0 0;
#X connect 12 0 1 0;
#X connect 12 1 2 0;
#X connect 12 2 3 0;
#X connect 12 3 4 0;
#X connect 12 4 5 0;
#X connect 12 5 6 0;
#X connect 12 6 7 0;
#X connect 12 7 8 0;
#X connect 12 8 9 0;
#X connect 12 9 10 0;
#X connect 12 10 11 0;
#X connect 13 0 12 0;
#X restore 288 174 pd store;
#X msg 288 9 \$1 bang;
#X obj 288 -13 r recall-pattern;
#X obj 288 225 outlet;
#X msg 132 23 \$1 set;
#X connect 0 0 1 0;
#X connect 1 0 2 0;
#X connect 2 0 4 0;
#X connect 3 0 6 0;
#X connect 4 0 8 0;
#X connect 4 1 5 0;
#X connect 5 0 9 0;
#X connect 6 0 13 0;
#X connect 6 1 7 0;
#X connect 7 0 5 1;
#X connect 8 0 5 1;
#X connect 9 0 12 0;
#X connect 10 0 9 0;
#X connect 11 0 10 0;
#X connect 13 0 1 1;
#X restore 105 372 pd choose pattern;
#N canvas 1 122 1905 350 choose 0;
#X obj 39 27 inlet;
#X obj 39 49 list prepend set;
#X obj 39 71 list trim;
#X obj 132 -18 r save-preset-number;
#X obj 39 93 t b a;
#X obj 66 150 spigot;
#X obj 132 4 t a b;
#X msg 137 94 1;
#X msg 39 113 0;
#N canvas 10 234 1905 380 store 0;
#X obj 1209 270 outlet;
#X msg 408 197 0 0 0 0 0 0 0 0 0 0 0 0 0 0 0 0 0 0 0 0 0 0 0 0 0 0
0 0 0 0 0 0;
#X msg 476 144 250 0 0 0 -1 -67 0 0 233 0 0 0 0 0 0 0 209 0 0 0 0 0
125 -13 197 0 155 0 0 0 0 0;
#X msg 796 198 250 0 0 0 -1 -67 0 0 233 0 0 0 0 0 0 0 209 0 0 0 0 0
125 -13 197 0 -49 215 -37 -37 0 0;
#X msg 864 145 -37 -55 -61 -55 209 -49 -61 -79 -103 -109 -115 -127
203 -139 -151 -31 -7 -7 -13 -25 191 -19 -25 -31 -37 -25 191 -271 197
-271 -283 203;
#X msg 1183 199 0 0 0 0 0 0 0 0 0 0 0 0 0 0 0 0 0 0 0 0 0 0 0 0 0 0
0 0 0 0 0 0;
#X msg 1251 146 0 0 0 0 0 0 0 0 0 0 0 0 0 0 0 0 0 0 0 0 0 0 0 0 0 0
0 0 0 0 0 0;
#X msg 1574 200 0 0 0 0 0 0 0 0 0 0 0 0 0 0 0 0 0 0 0 0 0 0 0 0 0 0
0 0 0 0 0 0;
#X msg 1642 147 0 0 0 0 0 0 0 0 0 0 0 0 0 0 0 0 0 0 0 0 0 0 0 0 0 0
0 0 0 0 0 0;
#X msg 1959 200 0 0 0 0 0 0 0 0 0 0 0 0 0 0 0 0 0 0 0 0 0 0 0 0 0 0
0 0 0 0 0 0;
#X msg 2027 147 0 0 0 0 0 0 0 0 0 0 0 0 0 0 0 0 0 0 0 0 0 0 0 0 0 0
0 0 0 0 0 0;
#X msg 2352 204 0 0 0 0 0 0 0 0 0 0 0 0 0 0 0 0 0 0 0 0 0 0 0 0 0 0
0 0 0 0 0 0;
#X obj 523 55 route 0 1 2 3 4 5 6 7 8 9 10, f 226;
#X obj 393 0 inlet;
#X connect 1 0 0 0;
#X connect 2 0 0 0;
#X connect 3 0 0 0;
#X connect 4 0 0 0;
#X connect 5 0 0 0;
#X connect 6 0 0 0;
#X connect 7 0 0 0;
#X connect 8 0 0 0;
#X connect 9 0 0 0;
#X connect 10 0 0 0;
#X connect 11 0 0 0;
#X connect 12 0 1 0;
#X connect 12 1 2 0;
#X connect 12 2 3 0;
#X connect 12 3 4 0;
#X connect 12 4 5 0;
#X connect 12 5 6 0;
#X connect 12 6 7 0;
#X connect 12 7 8 0;
#X connect 12 8 9 0;
#X connect 12 9 10 0;
#X connect 12 10 11 0;
#X connect 13 0 12 0;
#X restore 288 174 pd store;
#X msg 288 9 \$1 bang;
#X obj 288 -13 r recall-pattern;
#X obj 288 225 outlet;
#X msg 132 23 \$1 set;
#X connect 0 0 1 0;
#X connect 1 0 2 0;
#X connect 2 0 4 0;
#X connect 3 0 6 0;
#X connect 4 0 8 0;
#X connect 4 1 5 0;
#X connect 5 0 9 0;
#X connect 6 0 13 0;
#X connect 6 1 7 0;
#X connect 7 0 5 1;
#X connect 8 0 5 1;
#X connect 9 0 12 0;
#X connect 10 0 9 0;
#X connect 11 0 10 0;
#X connect 13 0 1 1;
#X restore 103 497 pd choose pattern;
#X connect 0 0 42 0;
#X connect 2 0 1 0;
#X connect 4 0 5 0;
#X connect 6 0 4 0;
#X connect 9 0 16 0;
#X connect 11 0 44 0;
#X connect 12 0 11 0;
#X connect 12 1 11 1;
#X connect 13 0 38 0;
#X connect 13 0 46 0;
#X connect 13 0 51 0;
#X connect 14 0 76 0;
#X connect 16 0 15 0;
#X connect 17 0 20 0;
#X connect 19 0 17 0;
#X connect 19 0 28 0;
#X connect 20 0 18 0;
#X connect 20 0 18 1;
#X connect 21 0 17 0;
#X connect 22 0 23 0;
#X connect 23 0 24 0;
#X connect 24 0 4 0;
#X connect 25 0 75 0;
#X connect 26 0 77 0;
#X connect 27 0 16 2;
#X connect 28 0 19 0;
#X connect 29 0 78 0;
#X connect 30 0 27 0;
#X connect 31 0 27 1;
#X connect 32 0 16 0;
#X connect 33 0 9 0;
#X connect 33 1 32 0;
#X connect 34 0 35 0;
#X connect 35 0 36 0;
#X connect 37 0 33 0;
#X connect 40 0 41 0;
#X connect 41 0 12 0;
#X connect 42 0 40 0;
#X connect 42 1 34 0;
#X connect 43 0 13 0;
#X connect 44 0 45 0;
#X connect 44 0 46 0;
#X connect 44 1 43 0;
#X connect 45 0 43 1;
#X connect 46 0 54 0;
#X connect 47 0 49 0;
#X connect 48 0 43 1;
#X connect 49 0 48 0;
#X connect 49 0 39 0;
#X connect 50 0 52 0;
#X connect 51 0 50 0;
#X connect 53 0 55 0;
#X connect 54 0 47 0;
#X connect 55 0 57 0;
#X connect 55 1 56 0;
#X connect 56 0 57 1;
#X connect 57 0 58 0;
#X connect 58 0 74 0;
#X connect 60 0 73 1;
#X connect 61 0 73 0;
#X connect 74 0 73 1;
#X connect 75 0 25 0;
#X connect 76 0 14 0;
#X connect 77 0 26 0;
#X connect 78 0 29 0;
