#N canvas 331 486 1157 438 10;
#X declare -path rj;
#X obj 32 17 declare -path rj;
#X obj 170 110 hsl 128 15 0 1 0 1 empty empty tone_(0...1) 20 7 1 10
-262144 -1 -1 6300 1;
#X obj 167 155 s \$0-in1;
#X msg 167 131 tone \$1;
#X obj 167 240 s \$0-in1;
#X obj 279 239 s \$0-in1;
#X obj 168 338 s \$0-in1;
#X msg 168 315 mod \$1;
#X msg 167 216 vib-freq \$1;
#X msg 279 216 vib-depth \$1;
#X obj 282 336 s \$0-in1;
#X msg 282 313 adsr24 \$1;
#X obj 336 155 s \$0-in1;
#X msg 336 132 decay \$1;
#X obj 796 106 c_keyboard;
#X obj 632 323 soundoutput;
#X obj 632 261 s_rhodey mypiano;
#X obj 731 152 poly 4 1;
#X obj 731 210 route 1 2 3 4;
#X obj 747 323 soundoutput;
#X obj 747 261 s_rhodey mypiano;
#X obj 861 322 soundoutput;
#X obj 862 260 s_rhodey mypiano;
#X obj 977 322 soundoutput;
#X obj 977 260 s_rhodey mypiano;
#X obj 730 176 pack f f f;
#X obj 731 50 r syn-noteon;
#X obj 835 145 print;
#X obj 725 241 r \$0-in1;
#X obj 839 241 r \$0-in1;
#X obj 955 240 r \$0-in1;
#X obj 1070 240 r \$0-in1;
#X obj 632 281 /~ 4;
#X obj 747 281 /~ 4;
#X obj 862 281 /~ 4;
#X obj 977 281 /~ 4;
#X obj 336 112 nbx 5 14 -1e+37 1e+37 0 1 empty empty empty 0 -8 0 10
-262144 -1 -1 531.47 256;
#X obj 167 198 nbx 5 14 -1e+37 1e+37 0 1 empty empty empty 0 -8 0 10
-262144 -1 -1 1 256;
#X obj 280 198 nbx 5 14 -1e+37 1e+37 0 1 empty empty empty 0 -8 0 10
-262144 -1 -1 1.3 256;
#X obj 282 294 nbx 5 14 -1e+37 1e+37 0 1 empty empty empty 0 -8 0 10
-262144 -1 -1 134.36 256;
#X obj 168 296 nbx 5 14 -1e+37 1e+37 0 1 empty empty empty 0 -8 0 10
-262144 -1 -1 1.07 256;
#X connect 1 0 3 0;
#X connect 3 0 2 0;
#X connect 7 0 6 0;
#X connect 8 0 4 0;
#X connect 9 0 5 0;
#X connect 11 0 10 0;
#X connect 13 0 12 0;
#X connect 14 0 17 0;
#X connect 14 0 27 0;
#X connect 16 0 32 0;
#X connect 17 0 25 0;
#X connect 17 1 25 1;
#X connect 17 2 25 2;
#X connect 18 0 16 0;
#X connect 18 1 20 0;
#X connect 18 2 22 0;
#X connect 18 3 24 0;
#X connect 20 0 33 0;
#X connect 22 0 34 0;
#X connect 24 0 35 0;
#X connect 25 0 18 0;
#X connect 26 0 17 0;
#X connect 28 0 16 1;
#X connect 29 0 20 1;
#X connect 30 0 22 1;
#X connect 31 0 24 1;
#X connect 32 0 15 0;
#X connect 32 0 15 1;
#X connect 33 0 19 0;
#X connect 33 0 19 1;
#X connect 34 0 21 0;
#X connect 34 0 21 1;
#X connect 35 0 23 0;
#X connect 35 0 23 1;
#X connect 36 0 13 0;
#X connect 37 0 8 0;
#X connect 38 0 9 0;
#X connect 39 0 11 0;
#X connect 40 0 7 0;
