#N canvas 441 363 1116 663 10;
#X declare -path rj -path abs;
#X declare -path ../rj;
#X declare -path ../rj;
#X declare -path ../rj;
#X declare -path ../rj;
#X obj 335 269 adc~;
#X obj 72 37 OVERVIEW;
#X obj 199 548 soundoutput;
#X obj 198 459 g_vol2;
#N canvas 244 86 594 365 restore 0;
#X obj 59 129 list prepend set;
#X obj 59 150 list trim;
#X obj 59 102 inlet;
#X obj 59 268 outlet;
#X obj 81 178 loadbang;
#X text 234 106 stores the last pattern.;
#X msg 59 216 100;
#X connect 0 0 1 0;
#X connect 1 0 6 0;
#X connect 2 0 0 0;
#X connect 4 0 6 0;
#X connect 6 0 3 0;
#X restore 273 478 pd restore;
#X obj 61 208 tgl 15 0 empty empty empty 17 7 0 10 -204786 -1 -1 0
1;
#N canvas 1 216 377 419 test__ 0;
#X obj 45 206 s_rhodey mypiano;
#X obj 45 168 pack 0 0;
#X obj 45 114 m_majorscale 60;
#X obj 45 60 metro 1000;
#X obj 45 141 makenote 80 50;
#X obj 46 261 e_pan 0.5;
#X obj 109 238 hsl 50 15 0 1 0 0 empty empty pan 20 8 1 10 -262144
-86277 -1 0 1;
#X obj 45 17 inlet;
#X obj 45 38 tgl 15 0 empty empty empty 17 7 0 10 -262144 -1 -1 0 1
;
#X obj 45 292 outlet~;
#X obj 105 292 outlet~;
#X obj 45 87 random 1;
#X connect 0 0 5 0;
#X connect 1 0 0 0;
#X connect 2 0 4 0;
#X connect 3 0 11 0;
#X connect 4 0 1 0;
#X connect 4 1 1 1;
#X connect 5 0 9 0;
#X connect 5 1 10 0;
#X connect 6 0 5 1;
#X connect 7 0 8 0;
#X connect 8 0 3 0;
#X connect 11 0 2 0;
#X restore 61 228 pd test__;
#X obj 72 18 declare -path rj -path abs;
#X obj 268 90 c_keyboard;
#X obj 268 111 poly 4 1;
#X obj 268 133 pack f f f;
#X obj 268 176 route 1 2 3 4;
#X obj 60 381 e_pitchshift;
#X floatatom 129 333 5 0 0 0 - - -, f 5;
#X msg 129 352 pitch \$1;
#X obj 318 332 harm;
#X obj 462 63 g_hsl dry 0 1;
#N canvas 232 122 594 365 restore 0;
#X obj 59 129 list prepend set;
#X obj 59 150 list trim;
#X obj 59 102 inlet;
#X obj 59 268 outlet;
#X obj 81 178 loadbang;
#X text 234 106 stores the last pattern.;
#X msg 59 216 dry 0.23622;
#X connect 0 0 1 0;
#X connect 1 0 6 0;
#X connect 2 0 0 0;
#X connect 4 0 6 0;
#X connect 6 0 3 0;
#X restore 393 67 pd restore;
#N canvas 234 116 594 365 restore 0;
#X obj 59 129 list prepend set;
#X obj 59 150 list trim;
#X obj 59 102 inlet;
#X obj 59 271 outlet;
#X obj 81 178 loadbang;
#X text 234 106 stores the last pattern.;
#X msg 59 216 pan 0.338583;
#X connect 0 0 1 0;
#X connect 1 0 6 0;
#X connect 2 0 0 0;
#X connect 4 0 6 0;
#X connect 6 0 3 0;
#X restore 392 115 pd restore;
#X obj 259 332 harm;
#X obj 199 332 harm;
#X obj 380 332 harm;
#X msg 268 155 \$1 pitch \$2 \$3;
#X obj 462 111 g_hsl pan 0 1;
#X obj 605 111 g_hsl pan 0 1;
#X obj 746 111 g_hsl pan 0 1;
#X obj 889 111 g_hsl pan 0 1;
#N canvas 234 116 594 365 restore 0;
#X obj 59 129 list prepend set;
#X obj 59 150 list trim;
#X obj 59 102 inlet;
#X obj 59 271 outlet;
#X obj 81 178 loadbang;
#X text 234 106 stores the last pattern.;
#X msg 59 216 pan 0.692913;
#X connect 0 0 1 0;
#X connect 1 0 6 0;
#X connect 2 0 0 0;
#X connect 4 0 6 0;
#X connect 6 0 3 0;
#X restore 621 87 pd restore;
#N canvas 234 116 594 365 restore 0;
#X obj 59 129 list prepend set;
#X obj 59 150 list trim;
#X obj 59 102 inlet;
#X obj 59 271 outlet;
#X obj 81 178 loadbang;
#X text 234 106 stores the last pattern.;
#X msg 59 216 pan 0.425197;
#X connect 0 0 1 0;
#X connect 1 0 6 0;
#X connect 2 0 0 0;
#X connect 4 0 6 0;
#X connect 6 0 3 0;
#X restore 762 88 pd restore;
#N canvas 234 116 594 365 restore 0;
#X obj 59 129 list prepend set;
#X obj 59 150 list trim;
#X obj 59 102 inlet;
#X obj 59 271 outlet;
#X obj 81 178 loadbang;
#X text 234 106 stores the last pattern.;
#X msg 59 216 pan 0.685039;
#X connect 0 0 1 0;
#X connect 1 0 6 0;
#X connect 2 0 0 0;
#X connect 4 0 6 0;
#X connect 6 0 3 0;
#X restore 907 87 pd restore;
#X connect 0 0 15 0;
#X connect 0 0 19 0;
#X connect 0 0 20 0;
#X connect 0 0 21 0;
#X connect 0 1 15 0;
#X connect 0 1 19 0;
#X connect 0 1 20 0;
#X connect 0 1 21 0;
#X connect 3 0 2 0;
#X connect 3 1 2 1;
#X connect 3 2 4 0;
#X connect 4 0 3 2;
#X connect 5 0 6 0;
#X connect 6 0 12 0;
#X connect 6 1 12 0;
#X connect 8 0 9 0;
#X connect 9 0 10 0;
#X connect 9 1 10 1;
#X connect 9 2 10 2;
#X connect 10 0 22 0;
#X connect 11 0 20 1;
#X connect 11 1 19 1;
#X connect 11 2 15 1;
#X connect 11 3 21 1;
#X connect 12 0 3 0;
#X connect 12 0 3 1;
#X connect 13 0 14 0;
#X connect 14 0 12 1;
#X connect 15 0 3 0;
#X connect 15 1 3 1;
#X connect 16 0 15 1;
#X connect 16 0 21 1;
#X connect 16 0 19 1;
#X connect 16 0 20 1;
#X connect 16 0 17 0;
#X connect 17 0 16 0;
#X connect 18 0 23 0;
#X connect 19 0 3 0;
#X connect 19 1 3 1;
#X connect 20 0 3 0;
#X connect 20 1 3 1;
#X connect 21 0 3 0;
#X connect 21 1 3 1;
#X connect 22 0 11 0;
#X connect 23 0 18 0;
#X connect 23 0 20 1;
#X connect 24 0 19 1;
#X connect 24 0 27 0;
#X connect 25 0 15 1;
#X connect 25 0 28 0;
#X connect 26 0 21 1;
#X connect 26 0 29 0;
#X connect 27 0 24 0;
#X connect 28 0 25 0;
#X connect 29 0 26 0;
