#N canvas 667 345 786 663 10;
#X declare -path rj;
#X obj 199 296 adc~;
#X obj 72 18 declare -path rj;
#X obj 72 37 OVERVIEW;
#X obj 315 99 g_nbx delr;
#X obj 315 64 g_nbx dell;
#X obj 315 204 g_nbx bpitch;
#X obj 315 134 g_nhsl feedback 0 1;
#X obj 199 498 soundoutput;
#X msg 332 346 help;
#X obj 199 346 e_dubdel mydubdel;
#X obj 315 29 g_nbx basedur;
#X obj 315 169 g_nbx bq;
#X obj 315 244 g_hsl dry 0 1;
#X msg 359 287 save;
#X obj 359 314 t a b;
#X text 469 139 feedback - delay feedback;
#X text 393 174 bq - bandpass Q: resonance (default 2);
#X text 408 286 e_dubdel is saveable;
#X text 411 33 basedur - base duration for delays;
#X text 463 240 dry - amount of dry signal;
#X text 462 258 dry=0 means fully wet (default);
#X text 412 62 dell - delay divisor left.;
#X text 412 76 Actual delay: basedur/dell;
#X text 414 96 delr - delay divisor right.;
#X text 414 110 Actual delay: basedur/delr;
#X text 391 206 bandpass pitch in midi units (0-127);
#X obj 37 96 c_keyboard;
#X obj 37 118 unpack f f;
#X obj 92 149 > 0;
#X obj 48 185 spigot;
#X obj 48 207 - 60;
#X obj 48 270 vradio 15 1 0 16 empty empty recall 0 -8 0 10 -4034 -13381
-1 2;
#X obj 28 270 vradio 15 1 0 16 empty empty save -10 -8 0 10 -258113
-86277 -1 1;
#X text 67 269 1;
#X text 67 284 2;
#X text 67 299 3;
#X text 67 314 4;
#X text 67 329 5;
#X text 67 344 6;
#X text 67 359 7;
#X text 67 374 8;
#X text 67 390 9;
#X text 67 404 10;
#X text 67 420 11;
#N canvas 66 378 1727 587 save/recall 0;
#X obj 51 37 inlet;
#X obj 212 39 inlet;
#X obj 90 157 s save-preset-number;
#X obj 51 59 t b b a;
#X msg 51 107 -1;
#X obj 106 121 s recall-data;
#X msg 106 100 save;
#X obj 61 -298 u_savepreset 1;
#X obj 61 -208 u_savepreset 2;
#X obj 61 -118 u_savepreset 3;
#X msg 61 -276 \; recall-data dry 0.409449 bq 8 basedur 0.12 bpitch
9 feedback 0 dell 14 delr 13 \, bq 8 \, basedur 74.12 \, bpitch 9 \,
feedback 0 \, dell -6 \, delr -15.58 \,;
#X msg 61 -186;
#X msg 61 -96 \; recall-data dry 0.409449 bq 8 basedur 0.12 bpitch
9 feedback 0 dell 14 delr 13 \, bq 8 \, basedur 74.12 \, bpitch 9 \,
feedback 0 \, dell -6 \, delr -15.58 \,;
#X msg 451 -366;
#X msg 451 -276;
#X msg 451 -186;
#X msg 451 -96;
#X msg 61 -366 \; recall-data dry 0.409449 bq 8 basedur 0.12 bpitch
9 feedback 0 dell 14 delr 13 \, bq 8 \, basedur 74.12 \, bpitch 9 \,
feedback 0 \, dell -6 \, delr -15.58 \,;
#X obj 61 -388 u_savepreset 0;
#X obj 451 -388 u_savepreset 4;
#X obj 451 -298 u_savepreset 5;
#X obj 451 -208 u_savepreset 6;
#X obj 451 -118 u_savepreset 7;
#X msg 801 -276 \; recall-data dry 0.409449 bq 8 basedur 0.12 bpitch
9 feedback 0 dell 14 delr 13 \, bq 8 \, basedur 74.12 \, bpitch 9 \,
feedback 0 \, dell -6 \, delr -15.58 \,;
#X msg 801 -186;
#X msg 801 -96 \; recall-data dry 0.409449 bq 8 basedur 0.12 bpitch
9 feedback 0 dell 14 delr 13 \, bq 8 \, basedur 74.12 \, bpitch 9 \,
feedback 0 \, dell -6 \, delr -15.58 \,;
#X msg 1191 -366;
#X msg 1191 -276;
#X msg 1191 -186;
#X msg 1191 -96;
#X msg 801 -366 \; recall-data dry 0.409449 bq 8 basedur 0.12 bpitch
9 feedback 0 dell 14 delr 13 \, bq 8 \, basedur 74.12 \, bpitch 9 \,
feedback 0 \, dell -6 \, delr -15.58 \,;
#X obj 801 -388 u_savepreset 8;
#X obj 801 -298 u_savepreset 9;
#X obj 801 -208 u_savepreset 10;
#X obj 801 -118 u_savepreset 11;
#X obj 1191 -388 u_savepreset 12;
#X obj 1191 -298 u_savepreset 13;
#X obj 1191 -208 u_savepreset 14;
#X obj 1191 -118 u_savepreset 15;
#X obj 212 116 s recall-preset-number;
#X connect 0 0 3 0;
#X connect 1 0 39 0;
#X connect 3 0 4 0;
#X connect 3 1 6 0;
#X connect 3 2 2 0;
#X connect 4 0 2 0;
#X connect 6 0 5 0;
#X connect 7 0 10 0;
#X connect 8 0 11 0;
#X connect 9 0 12 0;
#X connect 18 0 17 0;
#X connect 19 0 13 0;
#X connect 20 0 14 0;
#X connect 21 0 15 0;
#X connect 22 0 16 0;
#X connect 31 0 30 0;
#X connect 32 0 23 0;
#X connect 33 0 24 0;
#X connect 34 0 25 0;
#X connect 35 0 26 0;
#X connect 36 0 27 0;
#X connect 37 0 28 0;
#X connect 38 0 29 0;
#X restore 28 527 pd save/recall;
#X obj 48 229 moses 11;
#X obj 298 369 s save-data;
#X obj 315 4 r recall-data;
#X msg 395 -19 save;
#X obj 193 94 print;
#X obj 198 409 g_vol2;
#N canvas 244 86 594 365 restore 0;
#X obj 59 129 list prepend set;
#X obj 59 150 list trim;
#X obj 59 102 inlet;
#X obj 59 268 outlet;
#X obj 81 178 loadbang;
#X text 234 106 stores the last pattern.;
#X msg 59 216 100;
#X connect 0 0 1 0;
#X connect 1 0 6 0;
#X connect 2 0 0 0;
#X connect 4 0 6 0;
#X connect 6 0 3 0;
#X restore 273 428 pd restore;
#X connect 0 0 9 0;
#X connect 0 0 9 1;
#X connect 0 1 9 1;
#X connect 0 1 9 0;
#X connect 3 0 6 0;
#X connect 4 0 3 0;
#X connect 5 0 12 0;
#X connect 6 0 11 0;
#X connect 8 0 9 2;
#X connect 9 0 50 0;
#X connect 9 1 50 1;
#X connect 9 2 46 0;
#X connect 10 0 4 0;
#X connect 11 0 5 0;
#X connect 12 0 9 2;
#X connect 13 0 14 0;
#X connect 14 0 9 2;
#X connect 26 0 27 0;
#X connect 27 0 29 0;
#X connect 27 1 28 0;
#X connect 28 0 29 1;
#X connect 29 0 30 0;
#X connect 30 0 45 0;
#X connect 31 0 44 1;
#X connect 32 0 44 0;
#X connect 45 0 31 0;
#X connect 47 0 10 0;
#X connect 47 0 49 0;
#X connect 48 0 10 0;
#X connect 50 0 7 0;
#X connect 50 1 7 1;
#X connect 50 2 51 0;
#X connect 51 0 50 2;
