#N canvas 235 273 896 651 10;
#X obj 56 34 inlet~;
#X obj 58 508 outlet~;
#X obj 58 481 +~;
#X obj 78 443 *~;
#X obj 78 410 *~;
#X obj 467 234 mtof;
#X obj 285 68 inlet;
#X obj 79 377 line~;
#X text 278 35 vel pitch;
#X obj 467 267 osc~;
#X obj 244 144 pack 0 100;
#X obj 285 90 route 0;
#X obj 331 144 unpack 0 0;
#X obj 244 122 b;
#X obj 314 302 f;
#X obj 255 209 b;
#X obj 314 324 * 0.3;
#X obj 313 350 pack 0 1000;
#X obj 540 342 cos~;
#X obj 467 392 *~;
#X obj 580 342 cos~;
#X obj 627 344 cos~;
#X obj 540 315 *~ 0;
#X obj 580 315 *~ 0;
#X obj 627 317 *~ 0;
#X obj 309 212 min 127;
#X obj 226 501 print~;
#X obj 228 468 del 200;
#X obj 309 234 expr $f1/127.;
#X obj 255 234 del 10;
#X obj 222 322 pack 0 10;
#X obj 558 258 expr 140/(100+$f1);
#X obj 576 365 *~ 0.5;
#X obj 681 344 cos~;
#X obj 681 317 *~ 0;
#X obj 468 325 +~ 1;
#X obj 628 370 *~ 0.3;
#X obj 682 370 *~ 0.2;
#X obj 580 285 * 1;
#X obj 627 287 * 3;
#X obj 681 287 * 6;
#X connect 0 0 2 0;
#X connect 2 0 1 0;
#X connect 3 0 2 1;
#X connect 4 0 3 0;
#X connect 5 0 9 0;
#X connect 5 0 31 0;
#X connect 6 0 11 0;
#X connect 7 0 4 0;
#X connect 7 0 4 1;
#X connect 9 0 22 0;
#X connect 9 0 23 0;
#X connect 9 0 24 0;
#X connect 9 0 34 0;
#X connect 9 0 35 0;
#X connect 10 0 7 0;
#X connect 11 0 13 0;
#X connect 11 1 12 0;
#X connect 12 0 15 0;
#X connect 12 0 25 0;
#X connect 12 1 5 0;
#X connect 13 0 10 0;
#X connect 14 0 16 0;
#X connect 15 0 29 0;
#X connect 16 0 17 0;
#X connect 17 0 7 0;
#X connect 18 0 19 1;
#X connect 19 0 3 1;
#X connect 20 0 32 0;
#X connect 21 0 36 0;
#X connect 22 0 18 0;
#X connect 23 0 20 0;
#X connect 24 0 21 0;
#X connect 25 0 28 0;
#X connect 27 0 26 0;
#X connect 28 0 14 1;
#X connect 28 0 30 0;
#X connect 29 0 14 0;
#X connect 30 0 7 0;
#X connect 31 0 22 1;
#X connect 31 0 38 0;
#X connect 31 0 39 0;
#X connect 31 0 40 0;
#X connect 32 0 19 1;
#X connect 33 0 37 0;
#X connect 34 0 33 0;
#X connect 35 0 19 0;
#X connect 36 0 19 1;
#X connect 37 0 19 1;
#X connect 38 0 23 1;
#X connect 39 0 24 1;
#X connect 40 0 34 1;
