#N canvas 136 54 828 743 10;
#X obj 99 391 synthvoice;
#X obj 216 87 t b f;
#X obj 141 165 f;
#X obj 177 142 + 1;
#X obj 176 164 mod 1e+06;
#X obj 302 704 outlet~;
#X obj 271 210 + 1e+06;
#X obj 270 239 makenote;
#X obj 302 327 moses 1e+06;
#X msg 468 249 stop;
#X obj 181 360 route 1 2 3 4 5 6 7 8 9 10 11 12 13 14 15 16;
#X obj 270 279 poly 16 1;
#X obj 347 249 unpack 0 0;
#X obj 216 65 unpack 0 0 0;
#X obj 181 330 pack 0 0 0;
#X obj 302 658 hip~ 30;
#X obj 599 221 metro 150;
#X obj 599 199 tgl 15 0 empty empty empty 17 7 0 10 -262144 -1 -1 0
1;
#X obj 599 285 + 36;
#X obj 599 254 random 48;
#X obj 599 345 pack 0 64 250;
#X floatatom 648 318 3 0 127 0 - - -;
#X floatatom 699 315 4 0 9999 0 - - -;
#X floatatom 650 287 3 0 127 0 - - -;
#X floatatom 686 260 3 0 127 0 - - -;
#X floatatom 686 219 4 0 9999 0 - - -;
#X obj 600 374 s syn-note;
#X obj 587 463 metro 500;
#X floatatom 629 524 5 0 0 0 - - -;
#X obj 587 549 makenote 64 250;
#X obj 589 575 pack;
#X obj 589 599 s syn-midinoteon;
#X obj 587 444 tgl 15 0 empty empty empty 0 -6 0 8 -262144 -1 -1 0
1;
#X floatatom 663 442 5 0 0 0 - - -;
#X floatatom 717 522 5 0 0 0 - - -;
#X floatatom 677 495 5 0 0 0 - - -;
#X obj 587 524 + 24;
#X obj 587 495 random 48;
#X text 582 419 test note-on/note-off;
#X text 579 161 test note with duration;
#X obj 99 580 synthvoice;
#X obj 99 553 synthvoice;
#X obj 99 526 synthvoice;
#X obj 99 499 synthvoice;
#X obj 99 472 synthvoice;
#X obj 99 445 synthvoice;
#X obj 99 418 synthvoice;
#X obj 302 636 synthvoice;
#X obj 302 609 synthvoice;
#X obj 302 582 synthvoice;
#X obj 302 555 synthvoice;
#X obj 302 528 synthvoice;
#X obj 302 501 synthvoice;
#X obj 302 474 synthvoice;
#X obj 302 447 synthvoice;
#X obj 217 42 inlet;
#X obj 565 43 inlet;
#X obj 398 43 inlet;
#X text 187 22 notes with duration;
#X text 362 23 note-on or note-off;
#X text 535 25 all notes off;
#X obj 415 613 noise~;
#X obj 415 635 *~ 1e-05;
#X connect 0 0 46 0;
#X connect 1 0 2 0;
#X connect 1 1 14 2;
#X connect 2 0 3 0;
#X connect 2 0 6 0;
#X connect 3 0 4 0;
#X connect 4 0 2 1;
#X connect 6 0 7 0;
#X connect 7 0 11 0;
#X connect 7 1 11 1;
#X connect 8 0 14 2;
#X connect 9 0 11 0;
#X connect 10 0 0 1;
#X connect 10 1 46 1;
#X connect 10 2 45 1;
#X connect 10 3 44 1;
#X connect 10 4 43 1;
#X connect 10 5 42 1;
#X connect 10 6 41 1;
#X connect 10 7 40 1;
#X connect 10 8 54 1;
#X connect 10 9 53 1;
#X connect 10 10 52 1;
#X connect 10 11 51 1;
#X connect 10 12 50 1;
#X connect 10 13 49 1;
#X connect 10 14 48 1;
#X connect 10 15 47 1;
#X connect 11 0 14 0;
#X connect 11 1 8 0;
#X connect 11 2 14 1;
#X connect 12 0 11 0;
#X connect 12 1 11 1;
#X connect 13 0 1 0;
#X connect 13 1 7 1;
#X connect 13 2 7 2;
#X connect 14 0 10 0;
#X connect 15 0 5 0;
#X connect 16 0 19 0;
#X connect 17 0 16 0;
#X connect 18 0 20 0;
#X connect 19 0 18 0;
#X connect 20 0 26 0;
#X connect 21 0 20 1;
#X connect 22 0 20 2;
#X connect 23 0 18 1;
#X connect 24 0 19 1;
#X connect 25 0 16 1;
#X connect 27 0 37 0;
#X connect 28 0 36 1;
#X connect 29 0 30 0;
#X connect 29 1 30 1;
#X connect 30 0 31 0;
#X connect 32 0 27 0;
#X connect 33 0 27 1;
#X connect 34 0 29 2;
#X connect 35 0 37 1;
#X connect 36 0 29 0;
#X connect 37 0 36 0;
#X connect 40 0 54 0;
#X connect 41 0 40 0;
#X connect 42 0 41 0;
#X connect 43 0 42 0;
#X connect 44 0 43 0;
#X connect 45 0 44 0;
#X connect 46 0 45 0;
#X connect 47 0 15 0;
#X connect 48 0 47 0;
#X connect 49 0 48 0;
#X connect 50 0 49 0;
#X connect 51 0 50 0;
#X connect 52 0 51 0;
#X connect 53 0 52 0;
#X connect 54 0 53 0;
#X connect 55 0 13 0;
#X connect 56 0 9 0;
#X connect 57 0 12 0;
#X connect 61 0 62 0;
#X connect 62 0 15 0;
