#N canvas 669 305 714 381 10;
#X obj 57 312 s pd;
#X text 490 219 without input;
#X text 507 258 with input;
#X obj 57 39 inlet;
#X obj 57 121 sel 0 1;
#X obj 80 171 f 48000;
#X obj 57 194 f 48000;
#X obj 57 87 f;
#X obj 201 26 inlet;
#X obj 201 46 t b f;
#X obj 95 312 print pd;
#X msg 80 259 audio-dialog 2 0 0 0 2 0 0 0 2 0 0 0 2 0 0 0 48000 10
-1 64;
#X msg 57 219 audio-dialog 2 0 0 0 -2 0 0 0 2 0 0 0 2 0 0 0 48000 10
-1 64;
#X connect 3 0 7 0;
#X connect 4 0 6 0;
#X connect 4 1 5 0;
#X connect 5 0 11 0;
#X connect 6 0 12 0;
#X connect 7 0 4 0;
#X connect 8 0 9 0;
#X connect 9 0 7 0;
#X connect 9 1 5 1;
#X connect 9 1 6 1;
#X connect 11 0 0 0;
#X connect 11 0 10 0;
#X connect 12 0 0 0;
#X connect 12 0 10 0;
