#N canvas 214 536 947 543 10;
#X declare -path ../rj;
#X obj 109 164 e_pitchshift;
#X obj 201 30 unpack f f;
#X obj 258 81 > 0;
#X obj 132 306 *~;
#X obj 258 156 line~;
#X obj 258 103 change;
#X obj 201 82 change;
#X obj 108 56 inlet~;
#X obj 131 406 outlet~;
#X msg 201 104 pitch \$1;
#X obj 201 52 - 60;
#X obj 715 19 declare -path ../rj;
#X obj 109 235 c_xfade;
#X obj 148 191 r \$0-dry;
#X obj 148 213 pack 0 10;
#X obj 714 61 inlet;
#X obj 714 108 route save;
#X obj 714 85 list trim;
#X obj 714 154 outlet;
#X obj 771 175 u_dispatch \$0 dry;
#X obj 714 129 u_loader e_harm-\$1 \$0;
#X msg 258 136 \$1 100;
#X obj 132 328 e_pan 0.5;
#X obj 182 406 outlet~;
#X obj 771 195 u_dispatch \$0 pan;
#X obj 183 308 r \$0-pan;
#X obj 771 215 u_dispatch \$0 pitch;
#X obj 201 9 r \$0-pitch;
#X connect 0 0 12 0;
#X connect 1 0 10 0;
#X connect 1 1 2 0;
#X connect 2 0 5 0;
#X connect 3 0 22 0;
#X connect 4 0 3 1;
#X connect 5 0 21 0;
#X connect 6 0 9 0;
#X connect 7 0 0 0;
#X connect 7 0 12 1;
#X connect 9 0 0 1;
#X connect 10 0 6 0;
#X connect 12 0 3 0;
#X connect 13 0 14 0;
#X connect 14 0 12 2;
#X connect 15 0 17 0;
#X connect 16 0 20 0;
#X connect 16 1 19 0;
#X connect 17 0 16 0;
#X connect 19 0 24 0;
#X connect 20 0 18 0;
#X connect 21 0 4 0;
#X connect 22 0 8 0;
#X connect 22 1 23 0;
#X connect 24 0 26 0;
#X connect 25 0 22 1;
#X connect 27 0 1 0;
