#N canvas 718 217 891 264 10;
#X declare -path ../ -path ../../bin64 -path ../bin;
#X obj 454 29 unpackOSC;
#X obj 454 193 s syn-noteon;
#X obj 454 111 unpack;
#X obj 454 172 pack;
#X obj 480 152 * 64;
#X obj 454 91 route /note /open;
#X obj 334 65 loadbang;
#X msg 729 28 /open 02-two.pd;
#X msg 554 28 /note 60 1;
#X msg 639 28 /note 60 0;
#X msg 334 105 \; pd dsp 1;
#X msg 729 48 /open 01-one.pd;
#X obj 82 0 declare -path ../ -path ../../bin64 -path ../bin;
#X obj 334 85 delay 1000;
#X obj 454 8 udpreceive 7770;
#N canvas 614 166 450 608 open 0;
#X obj 180 244 symbol;
#X obj 134 127 t a a b;
#X obj 134 107 symbol;
#X obj 158 212 bng 15 250 50 0 empty empty empty 17 7 0 10 -262144
-1 -1;
#X msg 180 264 \; pd-\$1 menuclose \;;
#X obj 219 418 getdir;
#X obj 166 438 pack s s;
#X obj 219 398 loadbang;
#X obj 148 396 bng 15 250 50 0 empty empty empty 17 7 0 10 -262144
-1 -1;
#X msg 166 459 \; pd open \$1 \$2/.. \;;
#X obj 134 287 t b a;
#X obj 134 -25 t b b a;
#X obj 180 80 symbol;
#X obj 134 -5 del 50;
#X obj 134 317 del 100;
#X obj 180 211 spigot;
#X msg 219 188 1;
#X obj 219 167 t b;
#X obj 134 -46 inlet;
#X msg 134 338 \; pd dsp 1 \, \; dsp 1;
#X msg 157 44 \; pd dsp 0 \, \; dsp 0;
#X connect 0 0 4 0;
#X connect 1 0 10 0;
#X connect 1 1 0 1;
#X connect 1 1 17 0;
#X connect 1 2 15 0;
#X connect 2 0 1 0;
#X connect 3 0 0 0;
#X connect 5 0 6 1;
#X connect 6 0 9 0;
#X connect 7 0 5 0;
#X connect 8 0 6 0;
#X connect 10 0 14 0;
#X connect 10 1 6 0;
#X connect 11 0 13 0;
#X connect 11 1 20 0;
#X connect 11 2 12 0;
#X connect 12 0 2 1;
#X connect 13 0 2 0;
#X connect 14 0 19 0;
#X connect 15 0 0 0;
#X connect 16 0 15 1;
#X connect 17 0 16 0;
#X connect 18 0 11 0;
#X restore 512 124 pd open;
#X obj 602 156 print receive;
#X obj 641 115 tgl 15 0 empty empty empty 17 7 0 10 -262144 -1 -1 0
1;
#X msg 729 67 /open 02-analog-01.pd;
#X msg 729 87 /open 02-analog.pd;
#X obj 602 135 spigot;
#X connect 0 0 5 0;
#X connect 0 0 20 0;
#X connect 2 0 3 0;
#X connect 2 1 4 0;
#X connect 3 0 1 0;
#X connect 4 0 3 1;
#X connect 5 0 2 0;
#X connect 5 1 15 0;
#X connect 6 0 13 0;
#X connect 7 0 5 0;
#X connect 8 0 5 0;
#X connect 9 0 5 0;
#X connect 11 0 5 0;
#X connect 13 0 10 0;
#X connect 14 0 0 0;
#X connect 17 0 20 1;
#X connect 18 0 5 0;
#X connect 19 0 5 0;
#X connect 20 0 16 0;
