#N canvas 852 132 891 433 10;
#X declare -path ../ -path ../bin;
#X obj 454 29 unpackOSC;
#X obj 454 193 s syn-noteon;
#X obj 454 111 unpack;
#X obj 454 172 pack;
#X obj 480 152 * 64;
#X obj 454 8 udpreceive 239.0.0.1 7770;
#X obj 454 90 route /note /open;
#X obj 82 0 declare -path ../ -path ../bin;
#X obj 360 210 loadbang;
#X obj 203 234 symbol;
#X obj 134 167 t a a b;
#X msg 729 28 /open 02-two.pd;
#X msg 554 28 /note 60 1;
#X msg 639 28 /note 60 0;
#X obj 134 141 symbol;
#X obj 209 158 bng 15 250 50 0 empty empty empty 17 7 0 10 -262144
-1 -1;
#X msg 360 232 \; pd dsp 1;
#X msg 203 254 \; pd-\$1 menuclose \;;
#X msg 729 48 /open 01-one.pd;
#X msg 45 319 \; pd open \$1 /home/pi/pianophone/patches \;;
#X obj 98 278 getdir;
#X obj 45 298 pack s s;
#X obj 98 258 loadbang;
#X obj 27 256 bng 15 250 50 0 empty empty empty 17 7 0 10 -262144 -1
-1;
#X connect 0 0 6 0;
#X connect 2 0 3 0;
#X connect 2 1 4 0;
#X connect 3 0 1 0;
#X connect 4 0 3 1;
#X connect 5 0 0 0;
#X connect 6 0 2 0;
#X connect 6 1 14 0;
#X connect 8 0 16 0;
#X connect 9 0 17 0;
#X connect 10 0 21 0;
#X connect 10 1 9 1;
#X connect 10 2 9 0;
#X connect 11 0 6 0;
#X connect 12 0 6 0;
#X connect 13 0 6 0;
#X connect 14 0 10 0;
#X connect 15 0 9 0;
#X connect 18 0 6 0;
#X connect 20 0 21 1;
#X connect 21 0 19 0;
#X connect 22 0 20 0;
#X connect 23 0 21 0;
