#N canvas 40 209 607 488 10;
#X obj 72 36 inlet;
#X obj 173 265 f;
#X obj 198 265 + 1;
#X obj 134 226 t b f b;
#X obj 158 330 /;
#X obj 147 265 +;
#X obj 158 368 t f f;
#X obj 185 390 *;
#X obj 173 307 t f f;
#X obj 158 435 outlet;
#X obj 209 163 inlet;
#X obj 209 185 t b;
#X msg 209 207 0;
#X text 293 149 calcul la moyenne du stream d'entrée;
#X obj 72 60 route float list;
#X obj 118 82 t a b;
#X obj 118 104 list split 1;
#X obj 131 164 list;
#X obj 118 131 t b f;
#X connect 0 0 14 0;
#X connect 1 0 2 0;
#X connect 2 0 1 1;
#X connect 2 0 8 0;
#X connect 3 1 5 0;
#X connect 3 2 1 0;
#X connect 4 0 6 0;
#X connect 5 0 4 0;
#X connect 6 0 9 0;
#X connect 6 1 7 0;
#X connect 7 0 5 1;
#X connect 8 0 4 1;
#X connect 8 1 7 1;
#X connect 10 0 11 0;
#X connect 11 0 12 0;
#X connect 12 0 1 1;
#X connect 12 0 5 1;
#X connect 14 0 3 0;
#X connect 14 1 15 0;
#X connect 15 0 16 0;
#X connect 15 1 12 0;
#X connect 16 0 18 0;
#X connect 16 1 17 1;
#X connect 17 0 16 0;
#X connect 18 0 17 0;
#X connect 18 1 3 0;
