#N canvas 202 450 683 408 10;
#X obj 142 37 key;
#X obj 182 37 keyup;
#X obj 369 324 pack;
#X obj 182 76 t f b;
#X obj 142 76 t f b;
#X msg 179 95 1;
#X msg 236 90 0;
#X msg 141 154 0;
#X msg 171 154 1;
#X msg 201 154 2;
#X msg 231 154 3;
#X msg 262 154 4;
#X msg 291 154 5;
#X msg 321 154 6;
#X msg 351 154 7;
#X msg 381 154 8;
#X msg 411 154 9;
#X msg 438 154 10;
#X msg 471 154 11;
#X msg 501 154 12;
#X obj 368 347 outlet;
#X obj 465 266 inlet;
#X obj 443 300 * 90;
#X obj 410 259 inlet;
#X obj 369 279 +;
#X obj 369 257 + 60;
#X obj 39 35 r syn-noteon;
#X obj 39 181 unpack;
#X obj 72 202 > 0;
#X obj 39 56 t a a;
#X msg 66 77 \$1;
#X obj 66 99 > 48;
#X obj 39 145 spigot;
#X obj 141 110 route 113 122 115 101 100 102 116 103 121 104 117 106
107 111 108 112 109, f 86;
#X msg 530 154 13;
#X msg 561 154 14;
#X msg 591 154 15;
#X msg 621 154 16;
#X connect 0 0 4 0;
#X connect 1 0 3 0;
#X connect 2 0 20 0;
#X connect 3 0 33 0;
#X connect 3 1 6 0;
#X connect 4 0 33 0;
#X connect 4 1 5 0;
#X connect 5 0 22 0;
#X connect 6 0 2 1;
#X connect 7 0 25 0;
#X connect 8 0 25 0;
#X connect 9 0 25 0;
#X connect 10 0 25 0;
#X connect 11 0 25 0;
#X connect 12 0 25 0;
#X connect 13 0 25 0;
#X connect 14 0 25 0;
#X connect 15 0 25 0;
#X connect 16 0 25 0;
#X connect 17 0 25 0;
#X connect 18 0 25 0;
#X connect 19 0 25 0;
#X connect 21 0 22 1;
#X connect 22 0 2 1;
#X connect 23 0 24 1;
#X connect 24 0 2 0;
#X connect 25 0 24 0;
#X connect 26 0 29 0;
#X connect 27 0 24 0;
#X connect 27 1 28 0;
#X connect 28 0 22 0;
#X connect 29 0 32 0;
#X connect 29 1 30 0;
#X connect 30 0 31 0;
#X connect 31 0 32 1;
#X connect 32 0 27 0;
#X connect 33 0 7 0;
#X connect 33 1 8 0;
#X connect 33 2 9 0;
#X connect 33 3 10 0;
#X connect 33 4 11 0;
#X connect 33 5 12 0;
#X connect 33 6 13 0;
#X connect 33 7 14 0;
#X connect 33 8 15 0;
#X connect 33 9 16 0;
#X connect 33 10 17 0;
#X connect 33 11 18 0;
#X connect 33 12 19 0;
#X connect 33 13 34 0;
#X connect 33 14 35 0;
#X connect 33 15 36 0;
#X connect 33 16 37 0;
#X connect 34 0 25 0;
#X connect 35 0 25 0;
#X connect 36 0 25 0;
#X connect 37 0 25 0;
