#N canvas 843 514 601 300 10;
#X obj 127 61 c_keyboard;
#X floatatom 205 26 5 0 0 2 velocity - -, f 5;
#X obj 27 234 soundoutput;
#X obj 27 192 s_rhodey mypiano;
#X obj 126 83 poly 4 1;
#X obj 126 141 route 1 2 3 4;
#X obj 142 234 soundoutput;
#X obj 142 192 s_rhodey mypiano;
#X obj 257 233 soundoutput;
#X obj 257 191 s_rhodey mypiano;
#X obj 372 233 soundoutput;
#X obj 372 191 s_rhodey mypiano;
#X obj 125 107 pack f f f;
#X floatatom 115 25 5 0 0 2 transposition - -, f 5;
#X text 232 49 use the computer keyboard to emulate a piano keyboard
;
#X text 263 74 key mapping :;
#X text 450 94 blacks keys;
#X text 450 107 white keys;
#X text 337 141 from C60 to C72;
#X text 305 108 q s d f g h j k l m;
#X text 310 96 z e t y u o p;
#X connect 0 0 4 0;
#X connect 1 0 0 1;
#X connect 3 0 2 0;
#X connect 3 0 2 1;
#X connect 4 0 12 0;
#X connect 4 1 12 1;
#X connect 4 2 12 2;
#X connect 5 0 3 0;
#X connect 5 1 7 0;
#X connect 5 2 9 0;
#X connect 5 3 11 0;
#X connect 7 0 6 0;
#X connect 7 0 6 1;
#X connect 9 0 8 0;
#X connect 9 0 8 1;
#X connect 11 0 10 0;
#X connect 11 0 10 1;
#X connect 12 0 5 0;
#X connect 13 0 0 0;
