#N canvas 758 202 800 384 10;
#X obj 196 2 r save-preset-number;
#X obj 190 23 == \$1;
#X obj 196 46 t f f;
#X obj 223 68 sel 1;
#X obj 163 113 spigot;
#X obj 100 53 r save-data;
#X obj 163 152 u_cocollect;
#X obj 318 212 outlet;
#X obj 339 3 r recall-preset-number;
#X obj 339 25 sel \$1;
#X obj 223 90 t b b;
#X msg 299 156 addsemi \, add2 recall-data;
#X connect 0 0 1 0;
#X connect 1 0 2 0;
#X connect 2 0 4 1;
#X connect 2 1 3 0;
#X connect 3 0 10 0;
#X connect 4 0 6 0;
#X connect 5 0 4 0;
#X connect 6 0 7 0;
#X connect 8 0 9 0;
#X connect 9 0 7 0;
#X connect 10 0 11 0;
#X connect 10 1 6 1;
#X connect 11 0 7 0;
